M48
; DRILL file {KiCad (6.0.4)} date Tue Jun  7 23:10:56 2022
; FORMAT={-:-/ absolute / inch / decimal}
; #@! TF.CreationDate,2022-06-07T23:10:56-03:00
; #@! TF.GenerationSoftware,Kicad,Pcbnew,(6.0.4)
; #@! TF.FileFunction,Plated,1,2,PTH
FMAT,2
INCH
; #@! TA.AperFunction,Plated,PTH,ComponentDrill
T1C0.0276
; #@! TA.AperFunction,Plated,PTH,ComponentDrill
T2C0.0315
; #@! TA.AperFunction,Plated,PTH,ComponentDrill
T3C0.0354
; #@! TA.AperFunction,Plated,PTH,ComponentDrill
T4C0.0394
; #@! TA.AperFunction,Plated,PTH,ComponentDrill
T5C0.0400
; #@! TA.AperFunction,Plated,PTH,ComponentDrill
T6C0.0433
; #@! TA.AperFunction,Plated,PTH,ComponentDrill
T7C0.0630
; #@! TA.AperFunction,Plated,PTH,ComponentDrill
T8C0.1260
%
G90
G05
T1
X1.7504Y-2.5787
X1.9079Y-2.2244
X1.9504Y-2.5787
X2.0457Y-2.5787
X2.1079Y-2.2244
X2.2457Y-2.5787
X2.5181Y-2.5787
X2.6756Y-2.2244
X2.7181Y-2.5787
X2.8134Y-2.5787
X2.8756Y-2.2244
X3.0134Y-2.5787
X3.3039Y-2.5787
X3.4236Y-2.2441
X3.5039Y-2.5787
X3.6024Y-2.5787
X3.6236Y-2.2441
X3.8024Y-2.5787
X4.0913Y-2.5787
X4.2913Y-2.5787
X4.3307Y-2.2244
X4.3898Y-2.5787
X4.5307Y-2.2244
X4.5898Y-2.5787
X5.8449Y-3.1283
X5.9236Y-2.6953
X6.0449Y-3.1283
X6.1236Y-2.6953
X6.1614Y-2.8528
X6.1614Y-3.0528
T2
X1.8325Y-2.7953
X1.9063Y-2.3819
X1.9112Y-2.7953
X2.0063Y-2.3819
X2.0687Y-2.7953
X2.1063Y-2.3819
X2.1474Y-2.7953
X2.6002Y-2.7953
X2.674Y-2.3819
X2.6789Y-2.7953
X2.774Y-2.3819
X2.8364Y-2.7953
X2.874Y-2.3819
X2.9152Y-2.7953
X3.3285Y-2.7969
X3.4073Y-2.7969
X3.422Y-2.3819
X3.522Y-2.3819
X3.5648Y-2.7969
X3.622Y-2.3819
X3.6435Y-2.7969
X4.1553Y-2.7953
X4.2341Y-2.7953
X4.2504Y-2.3622
X4.3504Y-2.3622
X4.3898Y-2.7953
X4.4504Y-2.3622
X4.4685Y-2.7953
X5.8482Y-2.9118
X5.927Y-2.9118
T3
X6.5748Y-2.6575
X6.5748Y-2.7575
X6.5748Y-2.8575
X6.5748Y-2.9575
X6.6748Y-2.7075
X6.6748Y-2.8075
X6.6748Y-2.9075
X6.6748Y-3.0075
T4
X1.7323Y-3.3858
X1.7868Y-3.4976
X1.8413Y-3.3858
X1.8959Y-3.4976
X1.9504Y-3.3858
X2.0049Y-3.4976
X2.0594Y-3.3858
X2.114Y-3.4976
X2.1685Y-3.3858
X3.2461Y-3.3858
X3.3006Y-3.4976
X3.3551Y-3.3858
X3.4096Y-3.4976
X3.4642Y-3.3858
X3.5187Y-3.4976
X3.5732Y-3.3858
X3.6278Y-3.4976
X3.6823Y-3.3858
X4.7618Y-3.3858
X4.8163Y-3.4976
X4.8709Y-3.3858
X4.9254Y-3.4976
X4.9799Y-3.3858
X5.0344Y-3.4976
X5.089Y-3.3858
X5.1435Y-3.4976
X5.198Y-3.3858
X5.4134Y-2.1063
X5.4134Y-2.2063
X5.4315Y-1.2402
X5.4709Y-1.4764
X5.5315Y-1.2402
X5.5709Y-1.4764
X5.6315Y-1.2402
X5.6709Y-1.4764
X5.7315Y-1.2402
X5.7709Y-1.4764
X5.8315Y-1.2402
X5.8709Y-1.4764
X5.9315Y-1.2402
X6.2776Y-3.3858
X6.3321Y-3.4976
X6.3866Y-3.3858
X6.4411Y-3.4976
X6.4957Y-3.3858
X6.5502Y-3.4976
X6.6047Y-3.3858
X6.6593Y-3.4976
X6.7138Y-3.3858
X6.7323Y-2.1152
X6.7323Y-2.2152
T5
X2.054Y-1.2316
X2.154Y-1.2316
X2.254Y-1.2316
X2.354Y-1.2316
X2.414Y-3.1316
X2.454Y-1.2316
X2.514Y-3.1316
X2.554Y-1.2316
X2.614Y-3.1316
X2.654Y-1.2316
X2.714Y-3.1316
X2.754Y-1.2316
X2.8134Y-1.4913
X2.8134Y-1.5913
X2.8134Y-1.6913
X2.8134Y-1.7913
X2.814Y-3.1316
X2.854Y-1.2316
X2.9134Y-1.4913
X2.9134Y-1.5913
X2.9134Y-1.6913
X2.9134Y-1.7913
X2.914Y-3.1316
X2.954Y-1.2316
X3.014Y-3.1316
X3.114Y-1.2316
X3.114Y-3.1316
X3.214Y-1.2316
X3.314Y-1.2316
X3.314Y-3.1316
X3.414Y-1.2316
X3.414Y-3.1316
X3.514Y-1.2316
X3.514Y-3.1316
X3.614Y-1.2316
X3.614Y-3.1316
X3.714Y-1.2316
X3.714Y-3.1316
X3.814Y-1.2316
X3.814Y-3.1316
X3.819Y-2.0316
X3.819Y-2.1316
X3.819Y-2.2316
X3.914Y-3.1316
X3.919Y-2.0316
X3.919Y-2.1316
X3.919Y-2.2316
X4.014Y-1.2316
X4.014Y-3.1316
X4.114Y-1.2316
X4.214Y-1.2316
X4.214Y-3.1316
X4.314Y-1.2316
X4.314Y-3.1316
X4.414Y-1.2316
X4.414Y-3.1316
X4.514Y-1.2316
X4.514Y-3.1316
X4.614Y-1.2316
X4.614Y-3.1316
X4.714Y-1.2316
X4.714Y-3.1316
X4.814Y-3.1316
X4.914Y-3.1316
X5.014Y-1.2316
X5.014Y-1.3316
X5.014Y-1.4316
X5.014Y-1.5316
X5.014Y-1.6316
X5.014Y-1.7316
X5.014Y-1.8316
X5.014Y-1.9316
X5.014Y-2.0316
X5.014Y-2.1316
X5.014Y-2.2316
X5.014Y-2.3316
X5.014Y-2.4316
X5.014Y-2.5316
X5.014Y-2.6316
X5.014Y-2.7316
X5.014Y-2.8316
X5.014Y-2.9316
X5.114Y-1.2316
X5.114Y-1.3316
X5.114Y-1.4316
X5.114Y-1.5316
X5.114Y-1.6316
X5.114Y-1.7316
X5.114Y-1.8316
X5.114Y-1.9316
X5.114Y-2.0316
X5.114Y-2.1316
X5.114Y-2.2316
X5.114Y-2.3316
X5.114Y-2.4316
X5.114Y-2.5316
X5.114Y-2.6316
X5.114Y-2.7316
X5.114Y-2.8316
X5.114Y-2.9316
T6
X4.2047Y-1.4961
X4.3858Y-1.4961
X4.5669Y-1.4961
X4.748Y-1.4961
T7
X6.8047Y-2.5215
X6.8047Y-3.1435
T8
X1.4583Y-3.4417
X2.4425Y-3.4417
X2.972Y-3.4417
X3.9563Y-3.4417
X4.4878Y-3.4417
X5.472Y-3.4417
X6.0035Y-3.4417
X6.9878Y-3.4417
T4
G00X6.6732Y-1.4173
M15
G01X6.6732Y-1.3386
M16
G05
G00X6.8307Y-1.1929
M15
G01X6.752Y-1.1929
M16
G05
G00X6.9094Y-1.4173
M15
G01X6.9094Y-1.3386
M16
G05
T0
M30
