%TF.GenerationSoftware,KiCad,Pcbnew,(6.0.4)*%
%TF.CreationDate,2022-06-07T23:10:36-03:00*%
%TF.ProjectId,TCC_Flow,5443435f-466c-46f7-972e-6b696361645f,rev?*%
%TF.SameCoordinates,Original*%
%TF.FileFunction,Soldermask,Top*%
%TF.FilePolarity,Negative*%
%FSLAX46Y46*%
G04 Gerber Fmt 4.6, Leading zero omitted, Abs format (unit mm)*
G04 Created by KiCad (PCBNEW (6.0.4)) date 2022-06-07 23:10:36*
%MOMM*%
%LPD*%
G01*
G04 APERTURE LIST*
G04 Aperture macros list*
%AMRoundRect*
0 Rectangle with rounded corners*
0 $1 Rounding radius*
0 $2 $3 $4 $5 $6 $7 $8 $9 X,Y pos of 4 corners*
0 Add a 4 corners polygon primitive as box body*
4,1,4,$2,$3,$4,$5,$6,$7,$8,$9,$2,$3,0*
0 Add four circle primitives for the rounded corners*
1,1,$1+$1,$2,$3*
1,1,$1+$1,$4,$5*
1,1,$1+$1,$6,$7*
1,1,$1+$1,$8,$9*
0 Add four rect primitives between the rounded corners*
20,1,$1+$1,$2,$3,$4,$5,0*
20,1,$1+$1,$4,$5,$6,$7,0*
20,1,$1+$1,$6,$7,$8,$9,0*
20,1,$1+$1,$8,$9,$2,$3,0*%
G04 Aperture macros list end*
%ADD10C,1.400000*%
%ADD11O,1.400000X1.400000*%
%ADD12R,1.700000X1.700000*%
%ADD13O,1.700000X1.700000*%
%ADD14R,1.500000X1.500000*%
%ADD15C,1.500000*%
%ADD16R,1.600000X1.600000*%
%ADD17C,1.600000*%
%ADD18C,3.200000*%
%ADD19O,1.727200X1.727200*%
%ADD20C,4.000000*%
%ADD21C,3.250000*%
%ADD22RoundRect,0.248000X0.552000X-0.552000X0.552000X0.552000X-0.552000X0.552000X-0.552000X-0.552000X0*%
%ADD23C,2.200000*%
%ADD24RoundRect,0.250001X-0.799999X-0.799999X0.799999X-0.799999X0.799999X0.799999X-0.799999X0.799999X0*%
%ADD25C,2.100000*%
%ADD26R,3.500000X3.500000*%
%ADD27RoundRect,0.750000X0.750000X1.000000X-0.750000X1.000000X-0.750000X-1.000000X0.750000X-1.000000X0*%
%ADD28RoundRect,0.875000X0.875000X0.875000X-0.875000X0.875000X-0.875000X-0.875000X0.875000X-0.875000X0*%
%ADD29R,1.727200X1.727200*%
G04 APERTURE END LIST*
D10*
%TO.C,R13*%
X67960000Y-56500000D03*
D11*
X73040000Y-56500000D03*
%TD*%
D10*
%TO.C,R8*%
X103920000Y-65500000D03*
D11*
X109000000Y-65500000D03*
%TD*%
D10*
%TO.C,R1*%
X51960000Y-65500000D03*
D11*
X57040000Y-65500000D03*
%TD*%
D10*
%TO.C,R4*%
X63960000Y-65500000D03*
D11*
X69040000Y-65500000D03*
%TD*%
D12*
%TO.C,PwSpp15V2*%
X171000000Y-53725000D03*
D13*
X171000000Y-56265000D03*
%TD*%
D14*
%TO.C,Q2*%
X92000000Y-60500000D03*
D15*
X89460000Y-60500000D03*
X86920000Y-60500000D03*
%TD*%
D10*
%TO.C,R10*%
X156500000Y-72460000D03*
D11*
X156500000Y-77540000D03*
%TD*%
D10*
%TO.C,R11*%
X148460000Y-79460000D03*
D11*
X153540000Y-79460000D03*
%TD*%
D10*
%TO.C,R12*%
X48460000Y-56500000D03*
D11*
X53540000Y-56500000D03*
%TD*%
D10*
%TO.C,R6*%
X89000000Y-65500000D03*
D11*
X83920000Y-65500000D03*
%TD*%
D16*
%TO.C,C9*%
X148544900Y-73960000D03*
D17*
X150544900Y-73960000D03*
%TD*%
D12*
%TO.C,Clock1*%
X149120000Y-37500000D03*
D13*
X146580000Y-37500000D03*
X144040000Y-37500000D03*
X141500000Y-37500000D03*
X138960000Y-37500000D03*
%TD*%
D16*
%TO.C,C2*%
X46544900Y-71000000D03*
D17*
X48544900Y-71000000D03*
%TD*%
D18*
%TO.C,XA1*%
X99415000Y-46522500D03*
X48615000Y-31282500D03*
X123545000Y-31282500D03*
X99415000Y-74462500D03*
X129895000Y-79542500D03*
X47345000Y-79542500D03*
D19*
X61315000Y-79542500D03*
X68935000Y-79542500D03*
X71475000Y-79542500D03*
X99542000Y-51602500D03*
X127355000Y-31282500D03*
X129895000Y-31282500D03*
X84175000Y-79542500D03*
X86715000Y-79542500D03*
X89255000Y-79542500D03*
X91795000Y-79542500D03*
X94335000Y-79542500D03*
X96875000Y-79542500D03*
X99415000Y-79542500D03*
X101955000Y-79542500D03*
X107035000Y-79542500D03*
X109575000Y-79542500D03*
X112115000Y-79542500D03*
X114655000Y-79542500D03*
X117195000Y-79542500D03*
X119735000Y-79542500D03*
X122275000Y-79542500D03*
X124815000Y-79542500D03*
X57251000Y-31282500D03*
X96875000Y-31282500D03*
X94335000Y-31282500D03*
X91795000Y-31282500D03*
X89255000Y-31282500D03*
X86715000Y-31282500D03*
X84175000Y-31282500D03*
X81635000Y-31282500D03*
X79095000Y-31282500D03*
X75031000Y-31282500D03*
X72491000Y-31282500D03*
X69951000Y-31282500D03*
X67411000Y-31282500D03*
X64871000Y-31282500D03*
X62331000Y-31282500D03*
X101955000Y-31282500D03*
X104495000Y-31282500D03*
X107035000Y-31282500D03*
X109575000Y-31282500D03*
X112115000Y-31282500D03*
X114655000Y-31282500D03*
X117195000Y-31282500D03*
X119735000Y-31282500D03*
X127355000Y-33822500D03*
X129895000Y-33822500D03*
X127355000Y-36362500D03*
X129895000Y-36362500D03*
X127355000Y-38902500D03*
X129895000Y-38902500D03*
X127355000Y-41442500D03*
X129895000Y-41442500D03*
X127355000Y-43982500D03*
X129895000Y-43982500D03*
X127355000Y-46522500D03*
X129895000Y-46522500D03*
X127355000Y-49062500D03*
X129895000Y-49062500D03*
X127355000Y-51602500D03*
X129895000Y-51602500D03*
X127355000Y-54142500D03*
X129895000Y-54142500D03*
X127355000Y-56682500D03*
X129895000Y-56682500D03*
X127355000Y-59222500D03*
X129895000Y-59222500D03*
X127355000Y-61762500D03*
X129895000Y-61762500D03*
X127355000Y-64302500D03*
X129895000Y-64302500D03*
X127355000Y-66842500D03*
X129895000Y-66842500D03*
X127355000Y-69382500D03*
X129895000Y-69382500D03*
X127355000Y-71922500D03*
X129895000Y-71922500D03*
X59791000Y-31282500D03*
X74015000Y-79542500D03*
X76555000Y-79542500D03*
X99542000Y-56682500D03*
X127355000Y-74462500D03*
X129895000Y-74462500D03*
X63855000Y-79542500D03*
X97002000Y-51602500D03*
X99542000Y-54142500D03*
X66395000Y-79542500D03*
X97002000Y-56682500D03*
X97002000Y-54142500D03*
X52171000Y-31282500D03*
X54711000Y-31282500D03*
X79095000Y-79542500D03*
%TD*%
D20*
%TO.C,MFC2*%
X100490000Y-87420000D03*
X75490000Y-87420000D03*
D16*
X82450000Y-86000000D03*
D17*
X85220000Y-86000000D03*
X87990000Y-86000000D03*
X90760000Y-86000000D03*
X93530000Y-86000000D03*
X83835000Y-88840000D03*
X86605000Y-88840000D03*
X89375000Y-88840000D03*
X92145000Y-88840000D03*
%TD*%
D10*
%TO.C,R15*%
X110000000Y-56500000D03*
D11*
X115080000Y-56500000D03*
%TD*%
D20*
%TO.C,MFC3*%
X113990000Y-87420000D03*
X138990000Y-87420000D03*
D16*
X120950000Y-86000000D03*
D17*
X123720000Y-86000000D03*
X126490000Y-86000000D03*
X129260000Y-86000000D03*
X132030000Y-86000000D03*
X122335000Y-88840000D03*
X125105000Y-88840000D03*
X127875000Y-88840000D03*
X130645000Y-88840000D03*
%TD*%
D21*
%TO.C,Pirani1*%
X175890000Y-77660000D03*
X175890000Y-66230000D03*
D22*
X167000000Y-67500000D03*
D17*
X169540000Y-68770000D03*
X167000000Y-70040000D03*
X169540000Y-71310000D03*
X167000000Y-72580000D03*
X169540000Y-73850000D03*
X167000000Y-75120000D03*
X169540000Y-76390000D03*
D23*
X172840000Y-79845000D03*
X172840000Y-64045000D03*
%TD*%
D24*
%TO.C,Tela1*%
X106800000Y-38000000D03*
D25*
X111400000Y-38000000D03*
X116000000Y-38000000D03*
X120600000Y-38000000D03*
%TD*%
D10*
%TO.C,R5*%
X91500000Y-65500000D03*
D11*
X96580000Y-65500000D03*
%TD*%
D10*
%TO.C,R9*%
X155540000Y-68460000D03*
D11*
X150460000Y-68460000D03*
%TD*%
D16*
%TO.C,C3*%
X72044900Y-71000000D03*
D17*
X74044900Y-71000000D03*
%TD*%
D14*
%TO.C,Q3*%
X73000000Y-60500000D03*
D15*
X70460000Y-60500000D03*
X67920000Y-60500000D03*
%TD*%
D20*
%TO.C,MFC1*%
X62040000Y-87420000D03*
X37040000Y-87420000D03*
D16*
X44000000Y-86000000D03*
D17*
X46770000Y-86000000D03*
X49540000Y-86000000D03*
X52310000Y-86000000D03*
X55080000Y-86000000D03*
X45385000Y-88840000D03*
X48155000Y-88840000D03*
X50925000Y-88840000D03*
X53695000Y-88840000D03*
%TD*%
D14*
%TO.C,Q1*%
X53500000Y-60500000D03*
D15*
X50960000Y-60500000D03*
X48420000Y-60500000D03*
%TD*%
D14*
%TO.C,Q4*%
X113040000Y-60000000D03*
D15*
X110500000Y-60000000D03*
X107960000Y-60000000D03*
%TD*%
D10*
%TO.C,R3*%
X71460000Y-65500000D03*
D11*
X76540000Y-65500000D03*
%TD*%
D10*
%TO.C,R14*%
X86960000Y-57000000D03*
D11*
X92040000Y-57000000D03*
%TD*%
D10*
%TO.C,R7*%
X111500000Y-65500000D03*
D11*
X116580000Y-65500000D03*
%TD*%
D10*
%TO.C,R2*%
X44460000Y-65500000D03*
D11*
X49540000Y-65500000D03*
%TD*%
D20*
%TO.C,MFC4*%
X152490000Y-87420000D03*
X177490000Y-87420000D03*
D16*
X159450000Y-86000000D03*
D17*
X162220000Y-86000000D03*
X164990000Y-86000000D03*
X167760000Y-86000000D03*
X170530000Y-86000000D03*
X160835000Y-88840000D03*
X163605000Y-88840000D03*
X166375000Y-88840000D03*
X169145000Y-88840000D03*
%TD*%
D16*
%TO.C,C8*%
X105544900Y-71000000D03*
D17*
X107544900Y-71000000D03*
%TD*%
D26*
%TO.C,PwSpp15V1*%
X169500000Y-35000000D03*
D27*
X175500000Y-35000000D03*
D28*
X172500000Y-30300000D03*
%TD*%
D12*
%TO.C,MicroSd1*%
X137960000Y-31500000D03*
D13*
X140500000Y-31500000D03*
X143040000Y-31500000D03*
X145580000Y-31500000D03*
X148120000Y-31500000D03*
X150660000Y-31500000D03*
%TD*%
D16*
%TO.C,C7*%
X111500000Y-71000000D03*
D17*
X113500000Y-71000000D03*
%TD*%
D29*
%TO.C,U1*%
X74000000Y-45500000D03*
D19*
X71460000Y-45500000D03*
X74000000Y-42960000D03*
X71460000Y-42960000D03*
X74000000Y-40420000D03*
X71460000Y-40420000D03*
X74000000Y-37880000D03*
X71460000Y-37880000D03*
%TD*%
D16*
%TO.C,C6*%
X90544900Y-71040000D03*
D17*
X92544900Y-71040000D03*
%TD*%
D16*
%TO.C,C1*%
X52544900Y-71000000D03*
D17*
X54544900Y-71000000D03*
%TD*%
D16*
%TO.C,C4*%
X66044900Y-71000000D03*
D17*
X68044900Y-71000000D03*
%TD*%
D16*
%TO.C,C5*%
X84544900Y-71040000D03*
D17*
X86544900Y-71040000D03*
%TD*%
D12*
%TO.C,PwSpp5V1*%
X137500000Y-53500000D03*
D13*
X137500000Y-56040000D03*
%TD*%
M02*
