%TF.GenerationSoftware,KiCad,Pcbnew,(6.0.4)*%
%TF.CreationDate,2022-04-19T02:21:29-03:00*%
%TF.ProjectId,TCC_Flow,5443435f-466c-46f7-972e-6b696361645f,rev?*%
%TF.SameCoordinates,Original*%
%TF.FileFunction,Soldermask,Bot*%
%TF.FilePolarity,Negative*%
%FSLAX46Y46*%
G04 Gerber Fmt 4.6, Leading zero omitted, Abs format (unit mm)*
G04 Created by KiCad (PCBNEW (6.0.4)) date 2022-04-19 02:21:29*
%MOMM*%
%LPD*%
G01*
G04 APERTURE LIST*
G04 Aperture macros list*
%AMRoundRect*
0 Rectangle with rounded corners*
0 $1 Rounding radius*
0 $2 $3 $4 $5 $6 $7 $8 $9 X,Y pos of 4 corners*
0 Add a 4 corners polygon primitive as box body*
4,1,4,$2,$3,$4,$5,$6,$7,$8,$9,$2,$3,0*
0 Add four circle primitives for the rounded corners*
1,1,$1+$1,$2,$3*
1,1,$1+$1,$4,$5*
1,1,$1+$1,$6,$7*
1,1,$1+$1,$8,$9*
0 Add four rect primitives between the rounded corners*
20,1,$1+$1,$2,$3,$4,$5,0*
20,1,$1+$1,$4,$5,$6,$7,0*
20,1,$1+$1,$6,$7,$8,$9,0*
20,1,$1+$1,$8,$9,$2,$3,0*%
G04 Aperture macros list end*
%ADD10C,3.200000*%
%ADD11R,1.000000X1.000000*%
%ADD12O,1.000000X1.000000*%
%ADD13C,3.250000*%
%ADD14RoundRect,0.248000X0.552000X-0.552000X0.552000X0.552000X-0.552000X0.552000X-0.552000X-0.552000X0*%
%ADD15C,1.600000*%
%ADD16C,2.200000*%
%ADD17O,1.727200X1.727200*%
%ADD18R,1.600000X1.600000*%
%ADD19R,3.500000X3.500000*%
%ADD20RoundRect,0.750000X0.750000X1.000000X-0.750000X1.000000X-0.750000X-1.000000X0.750000X-1.000000X0*%
%ADD21RoundRect,0.875000X0.875000X0.875000X-0.875000X0.875000X-0.875000X-0.875000X0.875000X-0.875000X0*%
%ADD22C,4.000000*%
%ADD23RoundRect,0.250000X-0.550000X-0.550000X0.550000X-0.550000X0.550000X0.550000X-0.550000X0.550000X0*%
%ADD24RoundRect,0.250000X0.550000X-0.550000X0.550000X0.550000X-0.550000X0.550000X-0.550000X-0.550000X0*%
%ADD25R,1.050000X1.500000*%
%ADD26O,1.050000X1.500000*%
%ADD27C,1.400000*%
%ADD28O,1.400000X1.400000*%
G04 APERTURE END LIST*
D10*
%TO.C,M3*%
X193040000Y-47000000D03*
%TD*%
D11*
%TO.C,J1*%
X99060000Y-53340000D03*
D12*
X97790000Y-53340000D03*
X99060000Y-54610000D03*
X97790000Y-54610000D03*
X99060000Y-55880000D03*
X97790000Y-55880000D03*
X99060000Y-57150000D03*
X97790000Y-57150000D03*
%TD*%
D13*
%TO.C,Pirani1*%
X205090000Y-78105000D03*
X205090000Y-89535000D03*
D14*
X196200000Y-79375000D03*
D15*
X198740000Y-80645000D03*
X196200000Y-81915000D03*
X198740000Y-83185000D03*
X196200000Y-84455000D03*
X198740000Y-85725000D03*
X196200000Y-86995000D03*
X198740000Y-88265000D03*
D16*
X202040000Y-91720000D03*
X202040000Y-75920000D03*
%TD*%
D17*
%TO.C,XA1*%
X127107000Y-67440000D03*
X160000000Y-90300000D03*
X157460000Y-90300000D03*
X160000000Y-87760000D03*
X157460000Y-87760000D03*
X160000000Y-85220000D03*
X157460000Y-85220000D03*
X160000000Y-82680000D03*
X157460000Y-82680000D03*
X160000000Y-80140000D03*
X157460000Y-80140000D03*
X160000000Y-77600000D03*
X157460000Y-77600000D03*
X160000000Y-75060000D03*
X157460000Y-75060000D03*
X160000000Y-72520000D03*
X157460000Y-72520000D03*
X160000000Y-69980000D03*
X157460000Y-69980000D03*
X160000000Y-67440000D03*
X157460000Y-67440000D03*
X160000000Y-64900000D03*
X157460000Y-64900000D03*
X160000000Y-62360000D03*
X157460000Y-62360000D03*
X160000000Y-59820000D03*
X157460000Y-59820000D03*
X160000000Y-57280000D03*
X157460000Y-57280000D03*
X160000000Y-54740000D03*
X157460000Y-54740000D03*
X160000000Y-52200000D03*
X157460000Y-52200000D03*
X160000000Y-49660000D03*
X157460000Y-49660000D03*
X160000000Y-47120000D03*
X157460000Y-47120000D03*
X154920000Y-95380000D03*
X152380000Y-95380000D03*
X149840000Y-95380000D03*
X147300000Y-95380000D03*
X144760000Y-95380000D03*
X142220000Y-95380000D03*
X139680000Y-95380000D03*
X137140000Y-95380000D03*
X132060000Y-95380000D03*
X129520000Y-95380000D03*
X126980000Y-95380000D03*
X124440000Y-95380000D03*
X121900000Y-95380000D03*
X119360000Y-95380000D03*
X116820000Y-95380000D03*
X91420000Y-95380000D03*
X97516000Y-47120000D03*
X94976000Y-47120000D03*
X92436000Y-47120000D03*
X87356000Y-47120000D03*
X84816000Y-47120000D03*
X82276000Y-47120000D03*
D10*
X77450000Y-95380000D03*
X160000000Y-95380000D03*
X78720000Y-47120000D03*
X153650000Y-47120000D03*
X129520000Y-62360000D03*
X129520000Y-90300000D03*
D17*
X100056000Y-47120000D03*
X102596000Y-47120000D03*
X105136000Y-47120000D03*
X89896000Y-47120000D03*
X109200000Y-47120000D03*
X111740000Y-47120000D03*
X114280000Y-47120000D03*
X116820000Y-47120000D03*
X119360000Y-47120000D03*
X121900000Y-47120000D03*
X124440000Y-47120000D03*
X126980000Y-47120000D03*
X132060000Y-47120000D03*
X134600000Y-47120000D03*
X137140000Y-47120000D03*
X139680000Y-47120000D03*
X142220000Y-47120000D03*
X144760000Y-47120000D03*
X147300000Y-47120000D03*
X149840000Y-47120000D03*
X93960000Y-95380000D03*
X96500000Y-95380000D03*
X99040000Y-95380000D03*
X101580000Y-95380000D03*
X104120000Y-95380000D03*
X106660000Y-95380000D03*
X109200000Y-95380000D03*
X114280000Y-95380000D03*
X129647000Y-67440000D03*
X127107000Y-69980000D03*
X129647000Y-69980000D03*
X129647000Y-72520000D03*
X127107000Y-72520000D03*
%TD*%
D18*
%TO.C,C2*%
X97060000Y-81280000D03*
D15*
X99060000Y-81280000D03*
%TD*%
%TO.C,C1*%
X88360000Y-81280000D03*
D18*
X86360000Y-81280000D03*
%TD*%
%TO.C,C9*%
X121920000Y-81280000D03*
D15*
X123920000Y-81280000D03*
%TD*%
D18*
%TO.C,C8*%
X104140000Y-81280000D03*
D15*
X106140000Y-81280000D03*
%TD*%
D18*
%TO.C,C7*%
X139700000Y-81420000D03*
D15*
X141700000Y-81420000D03*
%TD*%
%TO.C,C6*%
X80740000Y-81280000D03*
D18*
X78740000Y-81280000D03*
%TD*%
%TO.C,C5*%
X177800000Y-91440000D03*
D15*
X179800000Y-91440000D03*
%TD*%
D18*
%TO.C,C4*%
X132080000Y-81280000D03*
D15*
X134080000Y-81280000D03*
%TD*%
D18*
%TO.C,C3*%
X114300000Y-81280000D03*
D15*
X116300000Y-81280000D03*
%TD*%
D19*
%TO.C,+15V-*%
X199740000Y-51757500D03*
D20*
X205740000Y-51757500D03*
D21*
X202740000Y-47057500D03*
%TD*%
D22*
%TO.C,MFC1*%
X91700000Y-103020000D03*
X66700000Y-103020000D03*
D18*
X73660000Y-101600000D03*
D15*
X76430000Y-101600000D03*
X79200000Y-101600000D03*
X81970000Y-101600000D03*
X84740000Y-101600000D03*
X75045000Y-104440000D03*
X77815000Y-104440000D03*
X80585000Y-104440000D03*
X83355000Y-104440000D03*
%TD*%
D22*
%TO.C,MFC4*%
X206000000Y-103020000D03*
X181000000Y-103020000D03*
D18*
X187960000Y-101600000D03*
D15*
X190730000Y-101600000D03*
X193500000Y-101600000D03*
X196270000Y-101600000D03*
X199040000Y-101600000D03*
X189345000Y-104440000D03*
X192115000Y-104440000D03*
X194885000Y-104440000D03*
X197655000Y-104440000D03*
%TD*%
D22*
%TO.C,MFC3*%
X167900000Y-103020000D03*
X142900000Y-103020000D03*
D18*
X149860000Y-101600000D03*
D15*
X152630000Y-101600000D03*
X155400000Y-101600000D03*
X158170000Y-101600000D03*
X160940000Y-101600000D03*
X151245000Y-104440000D03*
X154015000Y-104440000D03*
X156785000Y-104440000D03*
X159555000Y-104440000D03*
%TD*%
D22*
%TO.C,MFC2*%
X129800000Y-103020000D03*
X104800000Y-103020000D03*
D18*
X111760000Y-101600000D03*
D15*
X114530000Y-101600000D03*
X117300000Y-101600000D03*
X120070000Y-101600000D03*
X122840000Y-101600000D03*
X113145000Y-104440000D03*
X115915000Y-104440000D03*
X118685000Y-104440000D03*
X121455000Y-104440000D03*
%TD*%
%TO.C,+15V2-*%
X130600000Y-53340000D03*
D23*
X127000000Y-53340000D03*
%TD*%
%TO.C,+5V-*%
X111760000Y-53340000D03*
D15*
X115360000Y-53340000D03*
%TD*%
D23*
%TO.C,Tela1*%
X138640000Y-55880000D03*
D15*
X142240000Y-55880000D03*
X145840000Y-55880000D03*
X149440000Y-55880000D03*
%TD*%
D24*
%TO.C,Clock1*%
X165100000Y-73240000D03*
D15*
X165100000Y-69640000D03*
X165100000Y-66040000D03*
X165100000Y-62440000D03*
X165100000Y-58840000D03*
%TD*%
%TO.C,MicroSd1*%
X186800000Y-50800000D03*
X183200000Y-50800000D03*
X179600000Y-50800000D03*
X176000000Y-50800000D03*
X172400000Y-50800000D03*
D23*
X168800000Y-50800000D03*
%TD*%
D25*
%TO.C,Q4*%
X134620000Y-71120000D03*
D26*
X135890000Y-71120000D03*
X137160000Y-71120000D03*
%TD*%
D25*
%TO.C,Q3*%
X93980000Y-71120000D03*
D26*
X95250000Y-71120000D03*
X96520000Y-71120000D03*
%TD*%
D25*
%TO.C,Q2*%
X111105000Y-71337500D03*
D26*
X112375000Y-71337500D03*
X113645000Y-71337500D03*
%TD*%
D25*
%TO.C,Q1*%
X76200000Y-71120000D03*
D26*
X77470000Y-71120000D03*
X78740000Y-71120000D03*
%TD*%
D27*
%TO.C,R15*%
X96520000Y-88900000D03*
D28*
X101600000Y-88900000D03*
%TD*%
D27*
%TO.C,R14*%
X121920000Y-88900000D03*
D28*
X127000000Y-88900000D03*
%TD*%
D27*
%TO.C,R13*%
X132080000Y-88900000D03*
D28*
X137160000Y-88900000D03*
%TD*%
D27*
%TO.C,R12*%
X142240000Y-73660000D03*
D28*
X142240000Y-68580000D03*
%TD*%
D27*
%TO.C,R11*%
X101600000Y-73660000D03*
D28*
X101600000Y-68580000D03*
%TD*%
D27*
%TO.C,R10*%
X119380000Y-73660000D03*
D28*
X119380000Y-68580000D03*
%TD*%
%TO.C,R9*%
X83820000Y-88900000D03*
D27*
X78740000Y-88900000D03*
%TD*%
%TO.C,R8*%
X83820000Y-73660000D03*
D28*
X83820000Y-68580000D03*
%TD*%
D27*
%TO.C,R7*%
X173080000Y-86420000D03*
D28*
X173080000Y-81340000D03*
%TD*%
D27*
%TO.C,R6*%
X139700000Y-88900000D03*
D28*
X144780000Y-88900000D03*
%TD*%
D27*
%TO.C,R5*%
X114300000Y-88900000D03*
D28*
X119380000Y-88900000D03*
%TD*%
D27*
%TO.C,R4*%
X104140000Y-88900000D03*
D28*
X109220000Y-88900000D03*
%TD*%
%TO.C,R3*%
X91440000Y-88900000D03*
D27*
X86360000Y-88900000D03*
%TD*%
%TO.C,R2*%
X178160000Y-86420000D03*
D28*
X178160000Y-81340000D03*
%TD*%
D27*
%TO.C,R1*%
X183240000Y-81340000D03*
D28*
X183240000Y-86420000D03*
%TD*%
M02*
