M48
; DRILL file {KiCad (6.0.4)} date Tue Apr 19 02:21:49 2022
; FORMAT={-:-/ absolute / inch / decimal}
; #@! TF.CreationDate,2022-04-19T02:21:49-03:00
; #@! TF.GenerationSoftware,Kicad,Pcbnew,(6.0.4)
; #@! TF.FileFunction,Plated,1,2,PTH
FMAT,2
INCH
; #@! TA.AperFunction,Plated,PTH,ViaDrill
T1C0.0157
; #@! TA.AperFunction,Plated,PTH,ComponentDrill
T2C0.0236
; #@! TA.AperFunction,Plated,PTH,ComponentDrill
T3C0.0276
; #@! TA.AperFunction,Plated,PTH,ComponentDrill
T4C0.0295
; #@! TA.AperFunction,Plated,PTH,ComponentDrill
T5C0.0315
; #@! TA.AperFunction,Plated,PTH,ComponentDrill
T6C0.0354
; #@! TA.AperFunction,Plated,PTH,ComponentDrill
T7C0.0394
; #@! TA.AperFunction,Plated,PTH,ComponentDrill
T8C0.0400
; #@! TA.AperFunction,Plated,PTH,ComponentDrill
T9C0.0630
; #@! TA.AperFunction,Plated,PTH,ComponentDrill
T10C0.1260
%
G90
G05
T1
X5.6253Y-3.5938
T2
X4.4Y-2.1
X4.5417Y-2.1
X5.0Y-2.1
X5.1417Y-2.1
X5.4583Y-2.2
X5.6Y-2.2
X5.7417Y-2.2
X5.8835Y-2.2
X6.5Y-2.3165
X6.5Y-2.4583
X6.5Y-2.6
X6.5Y-2.7417
X6.5Y-2.8835
X6.6457Y-2.0
X6.7874Y-2.0
X6.9291Y-2.0
X7.0709Y-2.0
X7.2126Y-2.0
X7.3543Y-2.0
T3
X3.1Y-3.5
X3.3Y-2.7
X3.3Y-2.9
X3.3Y-3.5
X3.4Y-3.5
X3.6Y-3.5
X3.8Y-3.5
X3.85Y-2.1
X3.85Y-2.15
X3.85Y-2.2
X3.85Y-2.25
X3.9Y-2.1
X3.9Y-2.15
X3.9Y-2.2
X3.9Y-2.25
X4.0Y-2.7
X4.0Y-2.9
X4.0Y-3.5
X4.1Y-3.5
X4.3Y-3.5
X4.5Y-3.5
X4.7Y-2.7
X4.7Y-2.9
X4.7Y-3.5
X4.8Y-3.5
X5.0Y-3.5
X5.2Y-3.5
X5.4Y-3.5
X5.5Y-3.5
X5.6Y-2.7
X5.6Y-2.9
X5.7Y-3.5
X6.8142Y-3.2024
X6.8142Y-3.4024
X7.0142Y-3.2024
X7.0142Y-3.4024
X7.2142Y-3.2024
X7.2142Y-3.4024
T4
X3.0Y-2.8
X3.05Y-2.8
X3.1Y-2.8
X3.7Y-2.8
X3.75Y-2.8
X3.8Y-2.8
X4.3742Y-2.8086
X4.4242Y-2.8086
X4.4742Y-2.8086
X5.3Y-2.8
X5.35Y-2.8
X5.4Y-2.8
T5
X3.1Y-3.2
X3.1787Y-3.2
X3.4Y-3.2
X3.4787Y-3.2
X3.8213Y-3.2
X3.9Y-3.2
X4.1Y-3.2
X4.1787Y-3.2
X4.5Y-3.2
X4.5787Y-3.2
X4.8Y-3.2
X4.8787Y-3.2
X5.2Y-3.2
X5.2787Y-3.2
X5.5Y-3.2055
X5.5787Y-3.2055
X7.0Y-3.6
X7.0787Y-3.6
T6
X7.7244Y-3.125
X7.7244Y-3.225
X7.7244Y-3.325
X7.7244Y-3.425
X7.8244Y-3.175
X7.8244Y-3.275
X7.8244Y-3.375
X7.8244Y-3.475
T7
X2.9Y-4.0
X2.9545Y-4.1118
X3.0091Y-4.0
X3.0636Y-4.1118
X3.1181Y-4.0
X3.1726Y-4.1118
X3.2272Y-4.0
X3.2817Y-4.1118
X3.3362Y-4.0
X4.4Y-4.0
X4.4545Y-4.1118
X4.5091Y-4.0
X4.5636Y-4.1118
X4.6181Y-4.0
X4.6726Y-4.1118
X4.7272Y-4.0
X4.7817Y-4.1118
X4.8362Y-4.0
X5.9Y-4.0
X5.9545Y-4.1118
X6.0091Y-4.0
X6.0636Y-4.1118
X6.1181Y-4.0
X6.1726Y-4.1118
X6.2272Y-4.0
X6.2817Y-4.1118
X6.3362Y-4.0
X7.4Y-4.0
X7.4545Y-4.1118
X7.5091Y-4.0
X7.5636Y-4.1118
X7.6181Y-4.0
X7.6726Y-4.1118
X7.7272Y-4.0
X7.7817Y-4.1118
X7.8362Y-4.0
T8
X3.2392Y-1.8551
X3.3392Y-1.8551
X3.4392Y-1.8551
X3.5392Y-1.8551
X3.5992Y-3.7551
X3.6392Y-1.8551
X3.6992Y-3.7551
X3.7392Y-1.8551
X3.7992Y-3.7551
X3.8392Y-1.8551
X3.8992Y-3.7551
X3.9392Y-1.8551
X3.9992Y-3.7551
X4.0392Y-1.8551
X4.0992Y-3.7551
X4.1392Y-1.8551
X4.1992Y-3.7551
X4.2992Y-1.8551
X4.2992Y-3.7551
X4.3992Y-1.8551
X4.4992Y-1.8551
X4.4992Y-3.7551
X4.5992Y-1.8551
X4.5992Y-3.7551
X4.6992Y-1.8551
X4.6992Y-3.7551
X4.7992Y-1.8551
X4.7992Y-3.7551
X4.8992Y-1.8551
X4.8992Y-3.7551
X4.9992Y-1.8551
X4.9992Y-3.7551
X5.0042Y-2.6551
X5.0042Y-2.7551
X5.0042Y-2.8551
X5.0992Y-3.7551
X5.1042Y-2.6551
X5.1042Y-2.7551
X5.1042Y-2.8551
X5.1992Y-1.8551
X5.1992Y-3.7551
X5.2992Y-1.8551
X5.3992Y-1.8551
X5.3992Y-3.7551
X5.4992Y-1.8551
X5.4992Y-3.7551
X5.5992Y-1.8551
X5.5992Y-3.7551
X5.6992Y-1.8551
X5.6992Y-3.7551
X5.7992Y-1.8551
X5.7992Y-3.7551
X5.8992Y-1.8551
X5.8992Y-3.7551
X5.9992Y-3.7551
X6.0992Y-3.7551
X6.1992Y-1.8551
X6.1992Y-1.9551
X6.1992Y-2.0551
X6.1992Y-2.1551
X6.1992Y-2.2551
X6.1992Y-2.3551
X6.1992Y-2.4551
X6.1992Y-2.5551
X6.1992Y-2.6551
X6.1992Y-2.7551
X6.1992Y-2.8551
X6.1992Y-2.9551
X6.1992Y-3.0551
X6.1992Y-3.1551
X6.1992Y-3.2551
X6.1992Y-3.3551
X6.1992Y-3.4551
X6.1992Y-3.5551
X6.2992Y-1.8551
X6.2992Y-1.9551
X6.2992Y-2.0551
X6.2992Y-2.1551
X6.2992Y-2.2551
X6.2992Y-2.3551
X6.2992Y-2.4551
X6.2992Y-2.5551
X6.2992Y-2.6551
X6.2992Y-2.7551
X6.2992Y-2.8551
X6.2992Y-2.9551
X6.2992Y-3.0551
X6.2992Y-3.1551
X6.2992Y-3.2551
X6.2992Y-3.3551
X6.2992Y-3.4551
X6.2992Y-3.5551
T9
X7.9543Y-2.989
X7.9543Y-3.611
T10
X2.626Y-4.0559
X3.6102Y-4.0559
X4.126Y-4.0559
X5.1102Y-4.0559
X5.626Y-4.0559
X6.6102Y-4.0559
X7.126Y-4.0559
X8.1102Y-4.0559
T7
G00X7.8638Y-2.0771
M15
G01X7.8638Y-1.9983
M16
G05
G00X8.0213Y-1.8527
M15
G01X7.9425Y-1.8527
M16
G05
G00X8.1Y-2.0771
M15
G01X8.1Y-1.9983
M16
G05
T0
M30
