%TF.GenerationSoftware,KiCad,Pcbnew,(6.0.4)*%
%TF.CreationDate,2022-04-19T02:21:29-03:00*%
%TF.ProjectId,TCC_Flow,5443435f-466c-46f7-972e-6b696361645f,rev?*%
%TF.SameCoordinates,Original*%
%TF.FileFunction,Legend,Top*%
%TF.FilePolarity,Positive*%
%FSLAX46Y46*%
G04 Gerber Fmt 4.6, Leading zero omitted, Abs format (unit mm)*
G04 Created by KiCad (PCBNEW (6.0.4)) date 2022-04-19 02:21:29*
%MOMM*%
%LPD*%
G01*
G04 APERTURE LIST*
%ADD10C,0.150000*%
%ADD11C,0.120000*%
G04 APERTURE END LIST*
D10*
%TO.C,M3*%
X192230476Y-51252380D02*
X192230476Y-50252380D01*
X192563809Y-50966666D01*
X192897142Y-50252380D01*
X192897142Y-51252380D01*
X193278095Y-50252380D02*
X193897142Y-50252380D01*
X193563809Y-50633333D01*
X193706666Y-50633333D01*
X193801904Y-50680952D01*
X193849523Y-50728571D01*
X193897142Y-50823809D01*
X193897142Y-51061904D01*
X193849523Y-51157142D01*
X193801904Y-51204761D01*
X193706666Y-51252380D01*
X193420952Y-51252380D01*
X193325714Y-51204761D01*
X193278095Y-51157142D01*
%TO.C,J1*%
X98091666Y-50657380D02*
X98091666Y-51371666D01*
X98044047Y-51514523D01*
X97948809Y-51609761D01*
X97805952Y-51657380D01*
X97710714Y-51657380D01*
X99091666Y-51657380D02*
X98520238Y-51657380D01*
X98805952Y-51657380D02*
X98805952Y-50657380D01*
X98710714Y-50800238D01*
X98615476Y-50895476D01*
X98520238Y-50943095D01*
%TO.C,Pirani1*%
X190771428Y-75327380D02*
X190771428Y-74327380D01*
X191152380Y-74327380D01*
X191247619Y-74375000D01*
X191295238Y-74422619D01*
X191342857Y-74517857D01*
X191342857Y-74660714D01*
X191295238Y-74755952D01*
X191247619Y-74803571D01*
X191152380Y-74851190D01*
X190771428Y-74851190D01*
X191771428Y-75327380D02*
X191771428Y-74660714D01*
X191771428Y-74327380D02*
X191723809Y-74375000D01*
X191771428Y-74422619D01*
X191819047Y-74375000D01*
X191771428Y-74327380D01*
X191771428Y-74422619D01*
X192247619Y-75327380D02*
X192247619Y-74660714D01*
X192247619Y-74851190D02*
X192295238Y-74755952D01*
X192342857Y-74708333D01*
X192438095Y-74660714D01*
X192533333Y-74660714D01*
X193295238Y-75327380D02*
X193295238Y-74803571D01*
X193247619Y-74708333D01*
X193152380Y-74660714D01*
X192961904Y-74660714D01*
X192866666Y-74708333D01*
X193295238Y-75279761D02*
X193200000Y-75327380D01*
X192961904Y-75327380D01*
X192866666Y-75279761D01*
X192819047Y-75184523D01*
X192819047Y-75089285D01*
X192866666Y-74994047D01*
X192961904Y-74946428D01*
X193200000Y-74946428D01*
X193295238Y-74898809D01*
X193771428Y-74660714D02*
X193771428Y-75327380D01*
X193771428Y-74755952D02*
X193819047Y-74708333D01*
X193914285Y-74660714D01*
X194057142Y-74660714D01*
X194152380Y-74708333D01*
X194200000Y-74803571D01*
X194200000Y-75327380D01*
X194676190Y-75327380D02*
X194676190Y-74660714D01*
X194676190Y-74327380D02*
X194628571Y-74375000D01*
X194676190Y-74422619D01*
X194723809Y-74375000D01*
X194676190Y-74327380D01*
X194676190Y-74422619D01*
X195676190Y-75327380D02*
X195104761Y-75327380D01*
X195390476Y-75327380D02*
X195390476Y-74327380D01*
X195295238Y-74470238D01*
X195200000Y-74565476D01*
X195104761Y-74613095D01*
%TO.C,XA1*%
X64781904Y-43016380D02*
X65448571Y-44016380D01*
X65448571Y-43016380D02*
X64781904Y-44016380D01*
X65781904Y-43730666D02*
X66258095Y-43730666D01*
X65686666Y-44016380D02*
X66020000Y-43016380D01*
X66353333Y-44016380D01*
X67210476Y-44016380D02*
X66639047Y-44016380D01*
X66924761Y-44016380D02*
X66924761Y-43016380D01*
X66829523Y-43159238D01*
X66734285Y-43254476D01*
X66639047Y-43302095D01*
X125964000Y-66273142D02*
X126011619Y-66320761D01*
X125964000Y-66368380D01*
X125916380Y-66320761D01*
X125964000Y-66273142D01*
X125964000Y-66368380D01*
%TO.C,C2*%
X97893333Y-77887142D02*
X97845714Y-77934761D01*
X97702857Y-77982380D01*
X97607619Y-77982380D01*
X97464761Y-77934761D01*
X97369523Y-77839523D01*
X97321904Y-77744285D01*
X97274285Y-77553809D01*
X97274285Y-77410952D01*
X97321904Y-77220476D01*
X97369523Y-77125238D01*
X97464761Y-77030000D01*
X97607619Y-76982380D01*
X97702857Y-76982380D01*
X97845714Y-77030000D01*
X97893333Y-77077619D01*
X98274285Y-77077619D02*
X98321904Y-77030000D01*
X98417142Y-76982380D01*
X98655238Y-76982380D01*
X98750476Y-77030000D01*
X98798095Y-77077619D01*
X98845714Y-77172857D01*
X98845714Y-77268095D01*
X98798095Y-77410952D01*
X98226666Y-77982380D01*
X98845714Y-77982380D01*
%TO.C,C1*%
X87193333Y-77887142D02*
X87145714Y-77934761D01*
X87002857Y-77982380D01*
X86907619Y-77982380D01*
X86764761Y-77934761D01*
X86669523Y-77839523D01*
X86621904Y-77744285D01*
X86574285Y-77553809D01*
X86574285Y-77410952D01*
X86621904Y-77220476D01*
X86669523Y-77125238D01*
X86764761Y-77030000D01*
X86907619Y-76982380D01*
X87002857Y-76982380D01*
X87145714Y-77030000D01*
X87193333Y-77077619D01*
X88145714Y-77982380D02*
X87574285Y-77982380D01*
X87860000Y-77982380D02*
X87860000Y-76982380D01*
X87764761Y-77125238D01*
X87669523Y-77220476D01*
X87574285Y-77268095D01*
%TO.C,C9*%
X122753333Y-77887142D02*
X122705714Y-77934761D01*
X122562857Y-77982380D01*
X122467619Y-77982380D01*
X122324761Y-77934761D01*
X122229523Y-77839523D01*
X122181904Y-77744285D01*
X122134285Y-77553809D01*
X122134285Y-77410952D01*
X122181904Y-77220476D01*
X122229523Y-77125238D01*
X122324761Y-77030000D01*
X122467619Y-76982380D01*
X122562857Y-76982380D01*
X122705714Y-77030000D01*
X122753333Y-77077619D01*
X123229523Y-77982380D02*
X123420000Y-77982380D01*
X123515238Y-77934761D01*
X123562857Y-77887142D01*
X123658095Y-77744285D01*
X123705714Y-77553809D01*
X123705714Y-77172857D01*
X123658095Y-77077619D01*
X123610476Y-77030000D01*
X123515238Y-76982380D01*
X123324761Y-76982380D01*
X123229523Y-77030000D01*
X123181904Y-77077619D01*
X123134285Y-77172857D01*
X123134285Y-77410952D01*
X123181904Y-77506190D01*
X123229523Y-77553809D01*
X123324761Y-77601428D01*
X123515238Y-77601428D01*
X123610476Y-77553809D01*
X123658095Y-77506190D01*
X123705714Y-77410952D01*
%TO.C,C8*%
X104973333Y-77887142D02*
X104925714Y-77934761D01*
X104782857Y-77982380D01*
X104687619Y-77982380D01*
X104544761Y-77934761D01*
X104449523Y-77839523D01*
X104401904Y-77744285D01*
X104354285Y-77553809D01*
X104354285Y-77410952D01*
X104401904Y-77220476D01*
X104449523Y-77125238D01*
X104544761Y-77030000D01*
X104687619Y-76982380D01*
X104782857Y-76982380D01*
X104925714Y-77030000D01*
X104973333Y-77077619D01*
X105544761Y-77410952D02*
X105449523Y-77363333D01*
X105401904Y-77315714D01*
X105354285Y-77220476D01*
X105354285Y-77172857D01*
X105401904Y-77077619D01*
X105449523Y-77030000D01*
X105544761Y-76982380D01*
X105735238Y-76982380D01*
X105830476Y-77030000D01*
X105878095Y-77077619D01*
X105925714Y-77172857D01*
X105925714Y-77220476D01*
X105878095Y-77315714D01*
X105830476Y-77363333D01*
X105735238Y-77410952D01*
X105544761Y-77410952D01*
X105449523Y-77458571D01*
X105401904Y-77506190D01*
X105354285Y-77601428D01*
X105354285Y-77791904D01*
X105401904Y-77887142D01*
X105449523Y-77934761D01*
X105544761Y-77982380D01*
X105735238Y-77982380D01*
X105830476Y-77934761D01*
X105878095Y-77887142D01*
X105925714Y-77791904D01*
X105925714Y-77601428D01*
X105878095Y-77506190D01*
X105830476Y-77458571D01*
X105735238Y-77410952D01*
%TO.C,C7*%
X140533333Y-78027142D02*
X140485714Y-78074761D01*
X140342857Y-78122380D01*
X140247619Y-78122380D01*
X140104761Y-78074761D01*
X140009523Y-77979523D01*
X139961904Y-77884285D01*
X139914285Y-77693809D01*
X139914285Y-77550952D01*
X139961904Y-77360476D01*
X140009523Y-77265238D01*
X140104761Y-77170000D01*
X140247619Y-77122380D01*
X140342857Y-77122380D01*
X140485714Y-77170000D01*
X140533333Y-77217619D01*
X140866666Y-77122380D02*
X141533333Y-77122380D01*
X141104761Y-78122380D01*
%TO.C,C6*%
X79573333Y-77887142D02*
X79525714Y-77934761D01*
X79382857Y-77982380D01*
X79287619Y-77982380D01*
X79144761Y-77934761D01*
X79049523Y-77839523D01*
X79001904Y-77744285D01*
X78954285Y-77553809D01*
X78954285Y-77410952D01*
X79001904Y-77220476D01*
X79049523Y-77125238D01*
X79144761Y-77030000D01*
X79287619Y-76982380D01*
X79382857Y-76982380D01*
X79525714Y-77030000D01*
X79573333Y-77077619D01*
X80430476Y-76982380D02*
X80240000Y-76982380D01*
X80144761Y-77030000D01*
X80097142Y-77077619D01*
X80001904Y-77220476D01*
X79954285Y-77410952D01*
X79954285Y-77791904D01*
X80001904Y-77887142D01*
X80049523Y-77934761D01*
X80144761Y-77982380D01*
X80335238Y-77982380D01*
X80430476Y-77934761D01*
X80478095Y-77887142D01*
X80525714Y-77791904D01*
X80525714Y-77553809D01*
X80478095Y-77458571D01*
X80430476Y-77410952D01*
X80335238Y-77363333D01*
X80144761Y-77363333D01*
X80049523Y-77410952D01*
X80001904Y-77458571D01*
X79954285Y-77553809D01*
%TO.C,C5*%
X176453333Y-88107142D02*
X176405714Y-88154761D01*
X176262857Y-88202380D01*
X176167619Y-88202380D01*
X176024761Y-88154761D01*
X175929523Y-88059523D01*
X175881904Y-87964285D01*
X175834285Y-87773809D01*
X175834285Y-87630952D01*
X175881904Y-87440476D01*
X175929523Y-87345238D01*
X176024761Y-87250000D01*
X176167619Y-87202380D01*
X176262857Y-87202380D01*
X176405714Y-87250000D01*
X176453333Y-87297619D01*
X177358095Y-87202380D02*
X176881904Y-87202380D01*
X176834285Y-87678571D01*
X176881904Y-87630952D01*
X176977142Y-87583333D01*
X177215238Y-87583333D01*
X177310476Y-87630952D01*
X177358095Y-87678571D01*
X177405714Y-87773809D01*
X177405714Y-88011904D01*
X177358095Y-88107142D01*
X177310476Y-88154761D01*
X177215238Y-88202380D01*
X176977142Y-88202380D01*
X176881904Y-88154761D01*
X176834285Y-88107142D01*
%TO.C,C4*%
X132913333Y-77887142D02*
X132865714Y-77934761D01*
X132722857Y-77982380D01*
X132627619Y-77982380D01*
X132484761Y-77934761D01*
X132389523Y-77839523D01*
X132341904Y-77744285D01*
X132294285Y-77553809D01*
X132294285Y-77410952D01*
X132341904Y-77220476D01*
X132389523Y-77125238D01*
X132484761Y-77030000D01*
X132627619Y-76982380D01*
X132722857Y-76982380D01*
X132865714Y-77030000D01*
X132913333Y-77077619D01*
X133770476Y-77315714D02*
X133770476Y-77982380D01*
X133532380Y-76934761D02*
X133294285Y-77649047D01*
X133913333Y-77649047D01*
%TO.C,C3*%
X115133333Y-77887142D02*
X115085714Y-77934761D01*
X114942857Y-77982380D01*
X114847619Y-77982380D01*
X114704761Y-77934761D01*
X114609523Y-77839523D01*
X114561904Y-77744285D01*
X114514285Y-77553809D01*
X114514285Y-77410952D01*
X114561904Y-77220476D01*
X114609523Y-77125238D01*
X114704761Y-77030000D01*
X114847619Y-76982380D01*
X114942857Y-76982380D01*
X115085714Y-77030000D01*
X115133333Y-77077619D01*
X115466666Y-76982380D02*
X116085714Y-76982380D01*
X115752380Y-77363333D01*
X115895238Y-77363333D01*
X115990476Y-77410952D01*
X116038095Y-77458571D01*
X116085714Y-77553809D01*
X116085714Y-77791904D01*
X116038095Y-77887142D01*
X115990476Y-77934761D01*
X115895238Y-77982380D01*
X115609523Y-77982380D01*
X115514285Y-77934761D01*
X115466666Y-77887142D01*
%TO.C,+15V-*%
X202359047Y-58491428D02*
X203120952Y-58491428D01*
X202740000Y-58872380D02*
X202740000Y-58110476D01*
X204120952Y-58872380D02*
X203549523Y-58872380D01*
X203835238Y-58872380D02*
X203835238Y-57872380D01*
X203740000Y-58015238D01*
X203644761Y-58110476D01*
X203549523Y-58158095D01*
X205025714Y-57872380D02*
X204549523Y-57872380D01*
X204501904Y-58348571D01*
X204549523Y-58300952D01*
X204644761Y-58253333D01*
X204882857Y-58253333D01*
X204978095Y-58300952D01*
X205025714Y-58348571D01*
X205073333Y-58443809D01*
X205073333Y-58681904D01*
X205025714Y-58777142D01*
X204978095Y-58824761D01*
X204882857Y-58872380D01*
X204644761Y-58872380D01*
X204549523Y-58824761D01*
X204501904Y-58777142D01*
X205359047Y-57872380D02*
X205692380Y-58872380D01*
X206025714Y-57872380D01*
X206359047Y-58491428D02*
X207120952Y-58491428D01*
%TO.C,MFC1*%
X77461904Y-99252380D02*
X77461904Y-98252380D01*
X77795238Y-98966666D01*
X78128571Y-98252380D01*
X78128571Y-99252380D01*
X78938095Y-98728571D02*
X78604761Y-98728571D01*
X78604761Y-99252380D02*
X78604761Y-98252380D01*
X79080952Y-98252380D01*
X80033333Y-99157142D02*
X79985714Y-99204761D01*
X79842857Y-99252380D01*
X79747619Y-99252380D01*
X79604761Y-99204761D01*
X79509523Y-99109523D01*
X79461904Y-99014285D01*
X79414285Y-98823809D01*
X79414285Y-98680952D01*
X79461904Y-98490476D01*
X79509523Y-98395238D01*
X79604761Y-98300000D01*
X79747619Y-98252380D01*
X79842857Y-98252380D01*
X79985714Y-98300000D01*
X80033333Y-98347619D01*
X80985714Y-99252380D02*
X80414285Y-99252380D01*
X80700000Y-99252380D02*
X80700000Y-98252380D01*
X80604761Y-98395238D01*
X80509523Y-98490476D01*
X80414285Y-98538095D01*
%TO.C,MFC4*%
X191761904Y-99252380D02*
X191761904Y-98252380D01*
X192095238Y-98966666D01*
X192428571Y-98252380D01*
X192428571Y-99252380D01*
X193238095Y-98728571D02*
X192904761Y-98728571D01*
X192904761Y-99252380D02*
X192904761Y-98252380D01*
X193380952Y-98252380D01*
X194333333Y-99157142D02*
X194285714Y-99204761D01*
X194142857Y-99252380D01*
X194047619Y-99252380D01*
X193904761Y-99204761D01*
X193809523Y-99109523D01*
X193761904Y-99014285D01*
X193714285Y-98823809D01*
X193714285Y-98680952D01*
X193761904Y-98490476D01*
X193809523Y-98395238D01*
X193904761Y-98300000D01*
X194047619Y-98252380D01*
X194142857Y-98252380D01*
X194285714Y-98300000D01*
X194333333Y-98347619D01*
X195190476Y-98585714D02*
X195190476Y-99252380D01*
X194952380Y-98204761D02*
X194714285Y-98919047D01*
X195333333Y-98919047D01*
%TO.C,MFC3*%
X153661904Y-99252380D02*
X153661904Y-98252380D01*
X153995238Y-98966666D01*
X154328571Y-98252380D01*
X154328571Y-99252380D01*
X155138095Y-98728571D02*
X154804761Y-98728571D01*
X154804761Y-99252380D02*
X154804761Y-98252380D01*
X155280952Y-98252380D01*
X156233333Y-99157142D02*
X156185714Y-99204761D01*
X156042857Y-99252380D01*
X155947619Y-99252380D01*
X155804761Y-99204761D01*
X155709523Y-99109523D01*
X155661904Y-99014285D01*
X155614285Y-98823809D01*
X155614285Y-98680952D01*
X155661904Y-98490476D01*
X155709523Y-98395238D01*
X155804761Y-98300000D01*
X155947619Y-98252380D01*
X156042857Y-98252380D01*
X156185714Y-98300000D01*
X156233333Y-98347619D01*
X156566666Y-98252380D02*
X157185714Y-98252380D01*
X156852380Y-98633333D01*
X156995238Y-98633333D01*
X157090476Y-98680952D01*
X157138095Y-98728571D01*
X157185714Y-98823809D01*
X157185714Y-99061904D01*
X157138095Y-99157142D01*
X157090476Y-99204761D01*
X156995238Y-99252380D01*
X156709523Y-99252380D01*
X156614285Y-99204761D01*
X156566666Y-99157142D01*
%TO.C,MFC2*%
X115561904Y-99252380D02*
X115561904Y-98252380D01*
X115895238Y-98966666D01*
X116228571Y-98252380D01*
X116228571Y-99252380D01*
X117038095Y-98728571D02*
X116704761Y-98728571D01*
X116704761Y-99252380D02*
X116704761Y-98252380D01*
X117180952Y-98252380D01*
X118133333Y-99157142D02*
X118085714Y-99204761D01*
X117942857Y-99252380D01*
X117847619Y-99252380D01*
X117704761Y-99204761D01*
X117609523Y-99109523D01*
X117561904Y-99014285D01*
X117514285Y-98823809D01*
X117514285Y-98680952D01*
X117561904Y-98490476D01*
X117609523Y-98395238D01*
X117704761Y-98300000D01*
X117847619Y-98252380D01*
X117942857Y-98252380D01*
X118085714Y-98300000D01*
X118133333Y-98347619D01*
X118514285Y-98347619D02*
X118561904Y-98300000D01*
X118657142Y-98252380D01*
X118895238Y-98252380D01*
X118990476Y-98300000D01*
X119038095Y-98347619D01*
X119085714Y-98442857D01*
X119085714Y-98538095D01*
X119038095Y-98680952D01*
X118466666Y-99252380D01*
X119085714Y-99252380D01*
%TO.C,+15V2-*%
X125942857Y-51411428D02*
X126704761Y-51411428D01*
X126323809Y-51792380D02*
X126323809Y-51030476D01*
X127704761Y-51792380D02*
X127133333Y-51792380D01*
X127419047Y-51792380D02*
X127419047Y-50792380D01*
X127323809Y-50935238D01*
X127228571Y-51030476D01*
X127133333Y-51078095D01*
X128609523Y-50792380D02*
X128133333Y-50792380D01*
X128085714Y-51268571D01*
X128133333Y-51220952D01*
X128228571Y-51173333D01*
X128466666Y-51173333D01*
X128561904Y-51220952D01*
X128609523Y-51268571D01*
X128657142Y-51363809D01*
X128657142Y-51601904D01*
X128609523Y-51697142D01*
X128561904Y-51744761D01*
X128466666Y-51792380D01*
X128228571Y-51792380D01*
X128133333Y-51744761D01*
X128085714Y-51697142D01*
X128942857Y-50792380D02*
X129276190Y-51792380D01*
X129609523Y-50792380D01*
X129895238Y-50887619D02*
X129942857Y-50840000D01*
X130038095Y-50792380D01*
X130276190Y-50792380D01*
X130371428Y-50840000D01*
X130419047Y-50887619D01*
X130466666Y-50982857D01*
X130466666Y-51078095D01*
X130419047Y-51220952D01*
X129847619Y-51792380D01*
X130466666Y-51792380D01*
X130895238Y-51411428D02*
X131657142Y-51411428D01*
%TO.C,+5V-*%
X111655238Y-51411428D02*
X112417142Y-51411428D01*
X112036190Y-51792380D02*
X112036190Y-51030476D01*
X113369523Y-50792380D02*
X112893333Y-50792380D01*
X112845714Y-51268571D01*
X112893333Y-51220952D01*
X112988571Y-51173333D01*
X113226666Y-51173333D01*
X113321904Y-51220952D01*
X113369523Y-51268571D01*
X113417142Y-51363809D01*
X113417142Y-51601904D01*
X113369523Y-51697142D01*
X113321904Y-51744761D01*
X113226666Y-51792380D01*
X112988571Y-51792380D01*
X112893333Y-51744761D01*
X112845714Y-51697142D01*
X113702857Y-50792380D02*
X114036190Y-51792380D01*
X114369523Y-50792380D01*
X114702857Y-51411428D02*
X115464761Y-51411428D01*
%TO.C,Tela1*%
X142135238Y-53332380D02*
X142706666Y-53332380D01*
X142420952Y-54332380D02*
X142420952Y-53332380D01*
X143420952Y-54284761D02*
X143325714Y-54332380D01*
X143135238Y-54332380D01*
X143040000Y-54284761D01*
X142992380Y-54189523D01*
X142992380Y-53808571D01*
X143040000Y-53713333D01*
X143135238Y-53665714D01*
X143325714Y-53665714D01*
X143420952Y-53713333D01*
X143468571Y-53808571D01*
X143468571Y-53903809D01*
X142992380Y-53999047D01*
X144040000Y-54332380D02*
X143944761Y-54284761D01*
X143897142Y-54189523D01*
X143897142Y-53332380D01*
X144849523Y-54332380D02*
X144849523Y-53808571D01*
X144801904Y-53713333D01*
X144706666Y-53665714D01*
X144516190Y-53665714D01*
X144420952Y-53713333D01*
X144849523Y-54284761D02*
X144754285Y-54332380D01*
X144516190Y-54332380D01*
X144420952Y-54284761D01*
X144373333Y-54189523D01*
X144373333Y-54094285D01*
X144420952Y-53999047D01*
X144516190Y-53951428D01*
X144754285Y-53951428D01*
X144849523Y-53903809D01*
X145849523Y-54332380D02*
X145278095Y-54332380D01*
X145563809Y-54332380D02*
X145563809Y-53332380D01*
X145468571Y-53475238D01*
X145373333Y-53570476D01*
X145278095Y-53618095D01*
%TO.C,Clock1*%
X163457142Y-67754285D02*
X163504761Y-67801904D01*
X163552380Y-67944761D01*
X163552380Y-68040000D01*
X163504761Y-68182857D01*
X163409523Y-68278095D01*
X163314285Y-68325714D01*
X163123809Y-68373333D01*
X162980952Y-68373333D01*
X162790476Y-68325714D01*
X162695238Y-68278095D01*
X162600000Y-68182857D01*
X162552380Y-68040000D01*
X162552380Y-67944761D01*
X162600000Y-67801904D01*
X162647619Y-67754285D01*
X163552380Y-67182857D02*
X163504761Y-67278095D01*
X163409523Y-67325714D01*
X162552380Y-67325714D01*
X163552380Y-66659047D02*
X163504761Y-66754285D01*
X163457142Y-66801904D01*
X163361904Y-66849523D01*
X163076190Y-66849523D01*
X162980952Y-66801904D01*
X162933333Y-66754285D01*
X162885714Y-66659047D01*
X162885714Y-66516190D01*
X162933333Y-66420952D01*
X162980952Y-66373333D01*
X163076190Y-66325714D01*
X163361904Y-66325714D01*
X163457142Y-66373333D01*
X163504761Y-66420952D01*
X163552380Y-66516190D01*
X163552380Y-66659047D01*
X163504761Y-65468571D02*
X163552380Y-65563809D01*
X163552380Y-65754285D01*
X163504761Y-65849523D01*
X163457142Y-65897142D01*
X163361904Y-65944761D01*
X163076190Y-65944761D01*
X162980952Y-65897142D01*
X162933333Y-65849523D01*
X162885714Y-65754285D01*
X162885714Y-65563809D01*
X162933333Y-65468571D01*
X163552380Y-65040000D02*
X162552380Y-65040000D01*
X163171428Y-64944761D02*
X163552380Y-64659047D01*
X162885714Y-64659047D02*
X163266666Y-65040000D01*
X163552380Y-63706666D02*
X163552380Y-64278095D01*
X163552380Y-63992380D02*
X162552380Y-63992380D01*
X162695238Y-64087619D01*
X162790476Y-64182857D01*
X162838095Y-64278095D01*
%TO.C,MicroSd1*%
X174633333Y-49252380D02*
X174633333Y-48252380D01*
X174966666Y-48966666D01*
X175300000Y-48252380D01*
X175300000Y-49252380D01*
X175776190Y-49252380D02*
X175776190Y-48585714D01*
X175776190Y-48252380D02*
X175728571Y-48300000D01*
X175776190Y-48347619D01*
X175823809Y-48300000D01*
X175776190Y-48252380D01*
X175776190Y-48347619D01*
X176680952Y-49204761D02*
X176585714Y-49252380D01*
X176395238Y-49252380D01*
X176300000Y-49204761D01*
X176252380Y-49157142D01*
X176204761Y-49061904D01*
X176204761Y-48776190D01*
X176252380Y-48680952D01*
X176300000Y-48633333D01*
X176395238Y-48585714D01*
X176585714Y-48585714D01*
X176680952Y-48633333D01*
X177109523Y-49252380D02*
X177109523Y-48585714D01*
X177109523Y-48776190D02*
X177157142Y-48680952D01*
X177204761Y-48633333D01*
X177300000Y-48585714D01*
X177395238Y-48585714D01*
X177871428Y-49252380D02*
X177776190Y-49204761D01*
X177728571Y-49157142D01*
X177680952Y-49061904D01*
X177680952Y-48776190D01*
X177728571Y-48680952D01*
X177776190Y-48633333D01*
X177871428Y-48585714D01*
X178014285Y-48585714D01*
X178109523Y-48633333D01*
X178157142Y-48680952D01*
X178204761Y-48776190D01*
X178204761Y-49061904D01*
X178157142Y-49157142D01*
X178109523Y-49204761D01*
X178014285Y-49252380D01*
X177871428Y-49252380D01*
X178585714Y-49204761D02*
X178728571Y-49252380D01*
X178966666Y-49252380D01*
X179061904Y-49204761D01*
X179109523Y-49157142D01*
X179157142Y-49061904D01*
X179157142Y-48966666D01*
X179109523Y-48871428D01*
X179061904Y-48823809D01*
X178966666Y-48776190D01*
X178776190Y-48728571D01*
X178680952Y-48680952D01*
X178633333Y-48633333D01*
X178585714Y-48538095D01*
X178585714Y-48442857D01*
X178633333Y-48347619D01*
X178680952Y-48300000D01*
X178776190Y-48252380D01*
X179014285Y-48252380D01*
X179157142Y-48300000D01*
X180014285Y-49252380D02*
X180014285Y-48252380D01*
X180014285Y-49204761D02*
X179919047Y-49252380D01*
X179728571Y-49252380D01*
X179633333Y-49204761D01*
X179585714Y-49157142D01*
X179538095Y-49061904D01*
X179538095Y-48776190D01*
X179585714Y-48680952D01*
X179633333Y-48633333D01*
X179728571Y-48585714D01*
X179919047Y-48585714D01*
X180014285Y-48633333D01*
X181014285Y-49252380D02*
X180442857Y-49252380D01*
X180728571Y-49252380D02*
X180728571Y-48252380D01*
X180633333Y-48395238D01*
X180538095Y-48490476D01*
X180442857Y-48538095D01*
%TO.C,Q4*%
X135794761Y-68107619D02*
X135699523Y-68060000D01*
X135604285Y-67964761D01*
X135461428Y-67821904D01*
X135366190Y-67774285D01*
X135270952Y-67774285D01*
X135318571Y-68012380D02*
X135223333Y-67964761D01*
X135128095Y-67869523D01*
X135080476Y-67679047D01*
X135080476Y-67345714D01*
X135128095Y-67155238D01*
X135223333Y-67060000D01*
X135318571Y-67012380D01*
X135509047Y-67012380D01*
X135604285Y-67060000D01*
X135699523Y-67155238D01*
X135747142Y-67345714D01*
X135747142Y-67679047D01*
X135699523Y-67869523D01*
X135604285Y-67964761D01*
X135509047Y-68012380D01*
X135318571Y-68012380D01*
X136604285Y-67345714D02*
X136604285Y-68012380D01*
X136366190Y-66964761D02*
X136128095Y-67679047D01*
X136747142Y-67679047D01*
%TO.C,Q3*%
X95154761Y-68107619D02*
X95059523Y-68060000D01*
X94964285Y-67964761D01*
X94821428Y-67821904D01*
X94726190Y-67774285D01*
X94630952Y-67774285D01*
X94678571Y-68012380D02*
X94583333Y-67964761D01*
X94488095Y-67869523D01*
X94440476Y-67679047D01*
X94440476Y-67345714D01*
X94488095Y-67155238D01*
X94583333Y-67060000D01*
X94678571Y-67012380D01*
X94869047Y-67012380D01*
X94964285Y-67060000D01*
X95059523Y-67155238D01*
X95107142Y-67345714D01*
X95107142Y-67679047D01*
X95059523Y-67869523D01*
X94964285Y-67964761D01*
X94869047Y-68012380D01*
X94678571Y-68012380D01*
X95440476Y-67012380D02*
X96059523Y-67012380D01*
X95726190Y-67393333D01*
X95869047Y-67393333D01*
X95964285Y-67440952D01*
X96011904Y-67488571D01*
X96059523Y-67583809D01*
X96059523Y-67821904D01*
X96011904Y-67917142D01*
X95964285Y-67964761D01*
X95869047Y-68012380D01*
X95583333Y-68012380D01*
X95488095Y-67964761D01*
X95440476Y-67917142D01*
%TO.C,Q2*%
X112279761Y-68325119D02*
X112184523Y-68277500D01*
X112089285Y-68182261D01*
X111946428Y-68039404D01*
X111851190Y-67991785D01*
X111755952Y-67991785D01*
X111803571Y-68229880D02*
X111708333Y-68182261D01*
X111613095Y-68087023D01*
X111565476Y-67896547D01*
X111565476Y-67563214D01*
X111613095Y-67372738D01*
X111708333Y-67277500D01*
X111803571Y-67229880D01*
X111994047Y-67229880D01*
X112089285Y-67277500D01*
X112184523Y-67372738D01*
X112232142Y-67563214D01*
X112232142Y-67896547D01*
X112184523Y-68087023D01*
X112089285Y-68182261D01*
X111994047Y-68229880D01*
X111803571Y-68229880D01*
X112613095Y-67325119D02*
X112660714Y-67277500D01*
X112755952Y-67229880D01*
X112994047Y-67229880D01*
X113089285Y-67277500D01*
X113136904Y-67325119D01*
X113184523Y-67420357D01*
X113184523Y-67515595D01*
X113136904Y-67658452D01*
X112565476Y-68229880D01*
X113184523Y-68229880D01*
%TO.C,Q1*%
X77374761Y-68107619D02*
X77279523Y-68060000D01*
X77184285Y-67964761D01*
X77041428Y-67821904D01*
X76946190Y-67774285D01*
X76850952Y-67774285D01*
X76898571Y-68012380D02*
X76803333Y-67964761D01*
X76708095Y-67869523D01*
X76660476Y-67679047D01*
X76660476Y-67345714D01*
X76708095Y-67155238D01*
X76803333Y-67060000D01*
X76898571Y-67012380D01*
X77089047Y-67012380D01*
X77184285Y-67060000D01*
X77279523Y-67155238D01*
X77327142Y-67345714D01*
X77327142Y-67679047D01*
X77279523Y-67869523D01*
X77184285Y-67964761D01*
X77089047Y-68012380D01*
X76898571Y-68012380D01*
X78279523Y-68012380D02*
X77708095Y-68012380D01*
X77993809Y-68012380D02*
X77993809Y-67012380D01*
X77898571Y-67155238D01*
X77803333Y-67250476D01*
X77708095Y-67298095D01*
%TO.C,R15*%
X98417142Y-87432380D02*
X98083809Y-86956190D01*
X97845714Y-87432380D02*
X97845714Y-86432380D01*
X98226666Y-86432380D01*
X98321904Y-86480000D01*
X98369523Y-86527619D01*
X98417142Y-86622857D01*
X98417142Y-86765714D01*
X98369523Y-86860952D01*
X98321904Y-86908571D01*
X98226666Y-86956190D01*
X97845714Y-86956190D01*
X99369523Y-87432380D02*
X98798095Y-87432380D01*
X99083809Y-87432380D02*
X99083809Y-86432380D01*
X98988571Y-86575238D01*
X98893333Y-86670476D01*
X98798095Y-86718095D01*
X100274285Y-86432380D02*
X99798095Y-86432380D01*
X99750476Y-86908571D01*
X99798095Y-86860952D01*
X99893333Y-86813333D01*
X100131428Y-86813333D01*
X100226666Y-86860952D01*
X100274285Y-86908571D01*
X100321904Y-87003809D01*
X100321904Y-87241904D01*
X100274285Y-87337142D01*
X100226666Y-87384761D01*
X100131428Y-87432380D01*
X99893333Y-87432380D01*
X99798095Y-87384761D01*
X99750476Y-87337142D01*
%TO.C,R14*%
X123817142Y-87432380D02*
X123483809Y-86956190D01*
X123245714Y-87432380D02*
X123245714Y-86432380D01*
X123626666Y-86432380D01*
X123721904Y-86480000D01*
X123769523Y-86527619D01*
X123817142Y-86622857D01*
X123817142Y-86765714D01*
X123769523Y-86860952D01*
X123721904Y-86908571D01*
X123626666Y-86956190D01*
X123245714Y-86956190D01*
X124769523Y-87432380D02*
X124198095Y-87432380D01*
X124483809Y-87432380D02*
X124483809Y-86432380D01*
X124388571Y-86575238D01*
X124293333Y-86670476D01*
X124198095Y-86718095D01*
X125626666Y-86765714D02*
X125626666Y-87432380D01*
X125388571Y-86384761D02*
X125150476Y-87099047D01*
X125769523Y-87099047D01*
%TO.C,R13*%
X133977142Y-87432380D02*
X133643809Y-86956190D01*
X133405714Y-87432380D02*
X133405714Y-86432380D01*
X133786666Y-86432380D01*
X133881904Y-86480000D01*
X133929523Y-86527619D01*
X133977142Y-86622857D01*
X133977142Y-86765714D01*
X133929523Y-86860952D01*
X133881904Y-86908571D01*
X133786666Y-86956190D01*
X133405714Y-86956190D01*
X134929523Y-87432380D02*
X134358095Y-87432380D01*
X134643809Y-87432380D02*
X134643809Y-86432380D01*
X134548571Y-86575238D01*
X134453333Y-86670476D01*
X134358095Y-86718095D01*
X135262857Y-86432380D02*
X135881904Y-86432380D01*
X135548571Y-86813333D01*
X135691428Y-86813333D01*
X135786666Y-86860952D01*
X135834285Y-86908571D01*
X135881904Y-87003809D01*
X135881904Y-87241904D01*
X135834285Y-87337142D01*
X135786666Y-87384761D01*
X135691428Y-87432380D01*
X135405714Y-87432380D01*
X135310476Y-87384761D01*
X135262857Y-87337142D01*
%TO.C,R12*%
X140772380Y-71762857D02*
X140296190Y-72096190D01*
X140772380Y-72334285D02*
X139772380Y-72334285D01*
X139772380Y-71953333D01*
X139820000Y-71858095D01*
X139867619Y-71810476D01*
X139962857Y-71762857D01*
X140105714Y-71762857D01*
X140200952Y-71810476D01*
X140248571Y-71858095D01*
X140296190Y-71953333D01*
X140296190Y-72334285D01*
X140772380Y-70810476D02*
X140772380Y-71381904D01*
X140772380Y-71096190D02*
X139772380Y-71096190D01*
X139915238Y-71191428D01*
X140010476Y-71286666D01*
X140058095Y-71381904D01*
X139867619Y-70429523D02*
X139820000Y-70381904D01*
X139772380Y-70286666D01*
X139772380Y-70048571D01*
X139820000Y-69953333D01*
X139867619Y-69905714D01*
X139962857Y-69858095D01*
X140058095Y-69858095D01*
X140200952Y-69905714D01*
X140772380Y-70477142D01*
X140772380Y-69858095D01*
%TO.C,R11*%
X100132380Y-71762857D02*
X99656190Y-72096190D01*
X100132380Y-72334285D02*
X99132380Y-72334285D01*
X99132380Y-71953333D01*
X99180000Y-71858095D01*
X99227619Y-71810476D01*
X99322857Y-71762857D01*
X99465714Y-71762857D01*
X99560952Y-71810476D01*
X99608571Y-71858095D01*
X99656190Y-71953333D01*
X99656190Y-72334285D01*
X100132380Y-70810476D02*
X100132380Y-71381904D01*
X100132380Y-71096190D02*
X99132380Y-71096190D01*
X99275238Y-71191428D01*
X99370476Y-71286666D01*
X99418095Y-71381904D01*
X100132380Y-69858095D02*
X100132380Y-70429523D01*
X100132380Y-70143809D02*
X99132380Y-70143809D01*
X99275238Y-70239047D01*
X99370476Y-70334285D01*
X99418095Y-70429523D01*
%TO.C,R10*%
X117912380Y-71762857D02*
X117436190Y-72096190D01*
X117912380Y-72334285D02*
X116912380Y-72334285D01*
X116912380Y-71953333D01*
X116960000Y-71858095D01*
X117007619Y-71810476D01*
X117102857Y-71762857D01*
X117245714Y-71762857D01*
X117340952Y-71810476D01*
X117388571Y-71858095D01*
X117436190Y-71953333D01*
X117436190Y-72334285D01*
X117912380Y-70810476D02*
X117912380Y-71381904D01*
X117912380Y-71096190D02*
X116912380Y-71096190D01*
X117055238Y-71191428D01*
X117150476Y-71286666D01*
X117198095Y-71381904D01*
X116912380Y-70191428D02*
X116912380Y-70096190D01*
X116960000Y-70000952D01*
X117007619Y-69953333D01*
X117102857Y-69905714D01*
X117293333Y-69858095D01*
X117531428Y-69858095D01*
X117721904Y-69905714D01*
X117817142Y-69953333D01*
X117864761Y-70000952D01*
X117912380Y-70096190D01*
X117912380Y-70191428D01*
X117864761Y-70286666D01*
X117817142Y-70334285D01*
X117721904Y-70381904D01*
X117531428Y-70429523D01*
X117293333Y-70429523D01*
X117102857Y-70381904D01*
X117007619Y-70334285D01*
X116960000Y-70286666D01*
X116912380Y-70191428D01*
%TO.C,R9*%
X81113333Y-87432380D02*
X80780000Y-86956190D01*
X80541904Y-87432380D02*
X80541904Y-86432380D01*
X80922857Y-86432380D01*
X81018095Y-86480000D01*
X81065714Y-86527619D01*
X81113333Y-86622857D01*
X81113333Y-86765714D01*
X81065714Y-86860952D01*
X81018095Y-86908571D01*
X80922857Y-86956190D01*
X80541904Y-86956190D01*
X81589523Y-87432380D02*
X81780000Y-87432380D01*
X81875238Y-87384761D01*
X81922857Y-87337142D01*
X82018095Y-87194285D01*
X82065714Y-87003809D01*
X82065714Y-86622857D01*
X82018095Y-86527619D01*
X81970476Y-86480000D01*
X81875238Y-86432380D01*
X81684761Y-86432380D01*
X81589523Y-86480000D01*
X81541904Y-86527619D01*
X81494285Y-86622857D01*
X81494285Y-86860952D01*
X81541904Y-86956190D01*
X81589523Y-87003809D01*
X81684761Y-87051428D01*
X81875238Y-87051428D01*
X81970476Y-87003809D01*
X82018095Y-86956190D01*
X82065714Y-86860952D01*
%TO.C,R8*%
X82352380Y-71286666D02*
X81876190Y-71620000D01*
X82352380Y-71858095D02*
X81352380Y-71858095D01*
X81352380Y-71477142D01*
X81400000Y-71381904D01*
X81447619Y-71334285D01*
X81542857Y-71286666D01*
X81685714Y-71286666D01*
X81780952Y-71334285D01*
X81828571Y-71381904D01*
X81876190Y-71477142D01*
X81876190Y-71858095D01*
X81780952Y-70715238D02*
X81733333Y-70810476D01*
X81685714Y-70858095D01*
X81590476Y-70905714D01*
X81542857Y-70905714D01*
X81447619Y-70858095D01*
X81400000Y-70810476D01*
X81352380Y-70715238D01*
X81352380Y-70524761D01*
X81400000Y-70429523D01*
X81447619Y-70381904D01*
X81542857Y-70334285D01*
X81590476Y-70334285D01*
X81685714Y-70381904D01*
X81733333Y-70429523D01*
X81780952Y-70524761D01*
X81780952Y-70715238D01*
X81828571Y-70810476D01*
X81876190Y-70858095D01*
X81971428Y-70905714D01*
X82161904Y-70905714D01*
X82257142Y-70858095D01*
X82304761Y-70810476D01*
X82352380Y-70715238D01*
X82352380Y-70524761D01*
X82304761Y-70429523D01*
X82257142Y-70381904D01*
X82161904Y-70334285D01*
X81971428Y-70334285D01*
X81876190Y-70381904D01*
X81828571Y-70429523D01*
X81780952Y-70524761D01*
%TO.C,R7*%
X171612380Y-84046666D02*
X171136190Y-84380000D01*
X171612380Y-84618095D02*
X170612380Y-84618095D01*
X170612380Y-84237142D01*
X170660000Y-84141904D01*
X170707619Y-84094285D01*
X170802857Y-84046666D01*
X170945714Y-84046666D01*
X171040952Y-84094285D01*
X171088571Y-84141904D01*
X171136190Y-84237142D01*
X171136190Y-84618095D01*
X170612380Y-83713333D02*
X170612380Y-83046666D01*
X171612380Y-83475238D01*
%TO.C,R6*%
X142073333Y-87432380D02*
X141740000Y-86956190D01*
X141501904Y-87432380D02*
X141501904Y-86432380D01*
X141882857Y-86432380D01*
X141978095Y-86480000D01*
X142025714Y-86527619D01*
X142073333Y-86622857D01*
X142073333Y-86765714D01*
X142025714Y-86860952D01*
X141978095Y-86908571D01*
X141882857Y-86956190D01*
X141501904Y-86956190D01*
X142930476Y-86432380D02*
X142740000Y-86432380D01*
X142644761Y-86480000D01*
X142597142Y-86527619D01*
X142501904Y-86670476D01*
X142454285Y-86860952D01*
X142454285Y-87241904D01*
X142501904Y-87337142D01*
X142549523Y-87384761D01*
X142644761Y-87432380D01*
X142835238Y-87432380D01*
X142930476Y-87384761D01*
X142978095Y-87337142D01*
X143025714Y-87241904D01*
X143025714Y-87003809D01*
X142978095Y-86908571D01*
X142930476Y-86860952D01*
X142835238Y-86813333D01*
X142644761Y-86813333D01*
X142549523Y-86860952D01*
X142501904Y-86908571D01*
X142454285Y-87003809D01*
%TO.C,R5*%
X116673333Y-87432380D02*
X116340000Y-86956190D01*
X116101904Y-87432380D02*
X116101904Y-86432380D01*
X116482857Y-86432380D01*
X116578095Y-86480000D01*
X116625714Y-86527619D01*
X116673333Y-86622857D01*
X116673333Y-86765714D01*
X116625714Y-86860952D01*
X116578095Y-86908571D01*
X116482857Y-86956190D01*
X116101904Y-86956190D01*
X117578095Y-86432380D02*
X117101904Y-86432380D01*
X117054285Y-86908571D01*
X117101904Y-86860952D01*
X117197142Y-86813333D01*
X117435238Y-86813333D01*
X117530476Y-86860952D01*
X117578095Y-86908571D01*
X117625714Y-87003809D01*
X117625714Y-87241904D01*
X117578095Y-87337142D01*
X117530476Y-87384761D01*
X117435238Y-87432380D01*
X117197142Y-87432380D01*
X117101904Y-87384761D01*
X117054285Y-87337142D01*
%TO.C,R4*%
X106513333Y-87432380D02*
X106180000Y-86956190D01*
X105941904Y-87432380D02*
X105941904Y-86432380D01*
X106322857Y-86432380D01*
X106418095Y-86480000D01*
X106465714Y-86527619D01*
X106513333Y-86622857D01*
X106513333Y-86765714D01*
X106465714Y-86860952D01*
X106418095Y-86908571D01*
X106322857Y-86956190D01*
X105941904Y-86956190D01*
X107370476Y-86765714D02*
X107370476Y-87432380D01*
X107132380Y-86384761D02*
X106894285Y-87099047D01*
X107513333Y-87099047D01*
%TO.C,R3*%
X88733333Y-87432380D02*
X88400000Y-86956190D01*
X88161904Y-87432380D02*
X88161904Y-86432380D01*
X88542857Y-86432380D01*
X88638095Y-86480000D01*
X88685714Y-86527619D01*
X88733333Y-86622857D01*
X88733333Y-86765714D01*
X88685714Y-86860952D01*
X88638095Y-86908571D01*
X88542857Y-86956190D01*
X88161904Y-86956190D01*
X89066666Y-86432380D02*
X89685714Y-86432380D01*
X89352380Y-86813333D01*
X89495238Y-86813333D01*
X89590476Y-86860952D01*
X89638095Y-86908571D01*
X89685714Y-87003809D01*
X89685714Y-87241904D01*
X89638095Y-87337142D01*
X89590476Y-87384761D01*
X89495238Y-87432380D01*
X89209523Y-87432380D01*
X89114285Y-87384761D01*
X89066666Y-87337142D01*
%TO.C,R2*%
X176692380Y-84046666D02*
X176216190Y-84380000D01*
X176692380Y-84618095D02*
X175692380Y-84618095D01*
X175692380Y-84237142D01*
X175740000Y-84141904D01*
X175787619Y-84094285D01*
X175882857Y-84046666D01*
X176025714Y-84046666D01*
X176120952Y-84094285D01*
X176168571Y-84141904D01*
X176216190Y-84237142D01*
X176216190Y-84618095D01*
X175787619Y-83665714D02*
X175740000Y-83618095D01*
X175692380Y-83522857D01*
X175692380Y-83284761D01*
X175740000Y-83189523D01*
X175787619Y-83141904D01*
X175882857Y-83094285D01*
X175978095Y-83094285D01*
X176120952Y-83141904D01*
X176692380Y-83713333D01*
X176692380Y-83094285D01*
%TO.C,R1*%
X185612380Y-84046666D02*
X185136190Y-84380000D01*
X185612380Y-84618095D02*
X184612380Y-84618095D01*
X184612380Y-84237142D01*
X184660000Y-84141904D01*
X184707619Y-84094285D01*
X184802857Y-84046666D01*
X184945714Y-84046666D01*
X185040952Y-84094285D01*
X185088571Y-84141904D01*
X185136190Y-84237142D01*
X185136190Y-84618095D01*
X185612380Y-83094285D02*
X185612380Y-83665714D01*
X185612380Y-83380000D02*
X184612380Y-83380000D01*
X184755238Y-83475238D01*
X184850476Y-83570476D01*
X184898095Y-83665714D01*
D11*
%TO.C,J1*%
X96840000Y-52645000D02*
X96840000Y-57845000D01*
X99820000Y-53975000D02*
X100010000Y-53975000D01*
X99367530Y-57845000D02*
X100010000Y-57845000D01*
X99060000Y-52580000D02*
X100010000Y-52580000D01*
X98097530Y-57845000D02*
X98752470Y-57845000D01*
X100010000Y-52580000D02*
X100010000Y-53340000D01*
X100010000Y-53975000D02*
X100010000Y-57845000D01*
X96840000Y-52645000D02*
X97482470Y-52645000D01*
X96840000Y-57845000D02*
X97482470Y-57845000D01*
X98097530Y-52645000D02*
X98300000Y-52645000D01*
%TO.C,Pirani1*%
X200670000Y-75610000D02*
X190480000Y-75610000D01*
X216000000Y-75610000D02*
X203410000Y-75610000D01*
X216000000Y-92030000D02*
X216000000Y-75610000D01*
X195200000Y-75375000D02*
X197200000Y-75375000D01*
X190480000Y-92030000D02*
X200670000Y-92030000D01*
X190480000Y-75610000D02*
X190480000Y-92030000D01*
X203410000Y-92030000D02*
X216000000Y-92030000D01*
D10*
%TO.C,XA1*%
X63480000Y-44580000D02*
X161016000Y-44580000D01*
X63480000Y-97920000D02*
X162540000Y-97920000D01*
X161016000Y-44580000D02*
X162540000Y-46104000D01*
X162540000Y-97920000D02*
X162540000Y-96650000D01*
X162540000Y-96650000D02*
X165080000Y-94110000D01*
X165080000Y-94110000D02*
X165080000Y-59820000D01*
X165080000Y-59820000D02*
X162540000Y-57280000D01*
X162540000Y-57280000D02*
X162540000Y-46104000D01*
X63480000Y-44580000D02*
X63480000Y-97920000D01*
D11*
%TO.C,C2*%
X100061000Y-82320000D02*
X100061000Y-82933000D01*
X99381000Y-82320000D02*
X99381000Y-83504000D01*
X98260000Y-82320000D02*
X98260000Y-83853000D01*
X99301000Y-79012000D02*
X99301000Y-80240000D01*
X99181000Y-78951000D02*
X99181000Y-80240000D01*
X99221000Y-78970000D02*
X99221000Y-80240000D01*
X99741000Y-79309000D02*
X99741000Y-80240000D01*
X100021000Y-82320000D02*
X100021000Y-82979000D01*
X99701000Y-82320000D02*
X99701000Y-83284000D01*
X98220000Y-78704000D02*
X98220000Y-80240000D01*
X99621000Y-79215000D02*
X99621000Y-80240000D01*
X98100000Y-82320000D02*
X98100000Y-83860000D01*
X98781000Y-82320000D02*
X98781000Y-83760000D01*
X98941000Y-78852000D02*
X98941000Y-80240000D01*
X98981000Y-78866000D02*
X98981000Y-80240000D01*
X99821000Y-79379000D02*
X99821000Y-80240000D01*
X98660000Y-78769000D02*
X98660000Y-80240000D01*
X98300000Y-82320000D02*
X98300000Y-83849000D01*
X98901000Y-82320000D02*
X98901000Y-83722000D01*
X98620000Y-82320000D02*
X98620000Y-83800000D01*
X99341000Y-82320000D02*
X99341000Y-83527000D01*
X99461000Y-82320000D02*
X99461000Y-83455000D01*
X98180000Y-82320000D02*
X98180000Y-83858000D01*
X98580000Y-78752000D02*
X98580000Y-80240000D01*
X99501000Y-79131000D02*
X99501000Y-80240000D01*
X99901000Y-79454000D02*
X99901000Y-80240000D01*
X100061000Y-79627000D02*
X100061000Y-80240000D01*
X99101000Y-82320000D02*
X99101000Y-83645000D01*
X98060000Y-78700000D02*
X98060000Y-80240000D01*
X98380000Y-78719000D02*
X98380000Y-80240000D01*
X99101000Y-78915000D02*
X99101000Y-80240000D01*
X98540000Y-78744000D02*
X98540000Y-80240000D01*
X100541000Y-80475000D02*
X100541000Y-82085000D01*
X100341000Y-80029000D02*
X100341000Y-82531000D01*
X100181000Y-79780000D02*
X100181000Y-82780000D01*
X98420000Y-82320000D02*
X98420000Y-83836000D01*
X99141000Y-82320000D02*
X99141000Y-83628000D01*
X100581000Y-80603000D02*
X100581000Y-81957000D01*
X99621000Y-82320000D02*
X99621000Y-83345000D01*
X99581000Y-82320000D02*
X99581000Y-83375000D01*
X98821000Y-78812000D02*
X98821000Y-80240000D01*
X99061000Y-82320000D02*
X99061000Y-83662000D01*
X98941000Y-82320000D02*
X98941000Y-83708000D01*
X99141000Y-78932000D02*
X99141000Y-80240000D01*
X99301000Y-82320000D02*
X99301000Y-83548000D01*
X99941000Y-79495000D02*
X99941000Y-80240000D01*
X99581000Y-79185000D02*
X99581000Y-80240000D01*
X98380000Y-82320000D02*
X98380000Y-83841000D01*
X98981000Y-82320000D02*
X98981000Y-83694000D01*
X99021000Y-82320000D02*
X99021000Y-83678000D01*
X98220000Y-82320000D02*
X98220000Y-83856000D01*
X99061000Y-78898000D02*
X99061000Y-80240000D01*
X98740000Y-78789000D02*
X98740000Y-80240000D01*
X100461000Y-80269000D02*
X100461000Y-82291000D01*
X100141000Y-79726000D02*
X100141000Y-82834000D01*
X100501000Y-80365000D02*
X100501000Y-82195000D01*
X95255225Y-79805000D02*
X95755225Y-79805000D01*
X98060000Y-82320000D02*
X98060000Y-83860000D01*
X98861000Y-78825000D02*
X98861000Y-80240000D01*
X99541000Y-79158000D02*
X99541000Y-80240000D01*
X99261000Y-82320000D02*
X99261000Y-83570000D01*
X99421000Y-79080000D02*
X99421000Y-80240000D01*
X99861000Y-79416000D02*
X99861000Y-80240000D01*
X99981000Y-82320000D02*
X99981000Y-83023000D01*
X100421000Y-80182000D02*
X100421000Y-82378000D01*
X98180000Y-78702000D02*
X98180000Y-80240000D01*
X98340000Y-78715000D02*
X98340000Y-80240000D01*
X98140000Y-78701000D02*
X98140000Y-80240000D01*
X98260000Y-78707000D02*
X98260000Y-80240000D01*
X99861000Y-82320000D02*
X99861000Y-83144000D01*
X99181000Y-82320000D02*
X99181000Y-83609000D01*
X100621000Y-80762000D02*
X100621000Y-81798000D01*
X100661000Y-80996000D02*
X100661000Y-81564000D01*
X98660000Y-82320000D02*
X98660000Y-83791000D01*
X99781000Y-82320000D02*
X99781000Y-83217000D01*
X99221000Y-82320000D02*
X99221000Y-83590000D01*
X98460000Y-82320000D02*
X98460000Y-83830000D01*
X100301000Y-79961000D02*
X100301000Y-82599000D01*
X100261000Y-79897000D02*
X100261000Y-82663000D01*
X99021000Y-78882000D02*
X99021000Y-80240000D01*
X99341000Y-79033000D02*
X99341000Y-80240000D01*
X100381000Y-80102000D02*
X100381000Y-82458000D01*
X99421000Y-82320000D02*
X99421000Y-83480000D01*
X99981000Y-79537000D02*
X99981000Y-80240000D01*
X99661000Y-79245000D02*
X99661000Y-80240000D01*
X100101000Y-79675000D02*
X100101000Y-82885000D01*
X99541000Y-82320000D02*
X99541000Y-83402000D01*
X98821000Y-82320000D02*
X98821000Y-83748000D01*
X98580000Y-82320000D02*
X98580000Y-83808000D01*
X98901000Y-78838000D02*
X98901000Y-80240000D01*
X98420000Y-78724000D02*
X98420000Y-80240000D01*
X98500000Y-82320000D02*
X98500000Y-83823000D01*
X100221000Y-79837000D02*
X100221000Y-82723000D01*
X99901000Y-82320000D02*
X99901000Y-83106000D01*
X98861000Y-82320000D02*
X98861000Y-83735000D01*
X98340000Y-82320000D02*
X98340000Y-83845000D01*
X98140000Y-82320000D02*
X98140000Y-83859000D01*
X98740000Y-82320000D02*
X98740000Y-83771000D01*
X99941000Y-82320000D02*
X99941000Y-83065000D01*
X98781000Y-78800000D02*
X98781000Y-80240000D01*
X99701000Y-79276000D02*
X99701000Y-80240000D01*
X99501000Y-82320000D02*
X99501000Y-83429000D01*
X99461000Y-79105000D02*
X99461000Y-80240000D01*
X99261000Y-78990000D02*
X99261000Y-80240000D01*
X98300000Y-78711000D02*
X98300000Y-80240000D01*
X99781000Y-79343000D02*
X99781000Y-80240000D01*
X98500000Y-78737000D02*
X98500000Y-80240000D01*
X98700000Y-82320000D02*
X98700000Y-83781000D01*
X99381000Y-79056000D02*
X99381000Y-80240000D01*
X95505225Y-79555000D02*
X95505225Y-80055000D01*
X98460000Y-78730000D02*
X98460000Y-80240000D01*
X99741000Y-82320000D02*
X99741000Y-83251000D01*
X98540000Y-82320000D02*
X98540000Y-83816000D01*
X98620000Y-78760000D02*
X98620000Y-80240000D01*
X99661000Y-82320000D02*
X99661000Y-83315000D01*
X99821000Y-82320000D02*
X99821000Y-83181000D01*
X98100000Y-78700000D02*
X98100000Y-80240000D01*
X98700000Y-78779000D02*
X98700000Y-80240000D01*
X100021000Y-79581000D02*
X100021000Y-80240000D01*
X100680000Y-81280000D02*
G75*
G03*
X100680000Y-81280000I-2620000J0D01*
G01*
%TO.C,C1*%
X89980000Y-81280000D02*
G75*
G03*
X89980000Y-81280000I-2620000J0D01*
G01*
X89321000Y-79581000D02*
X89321000Y-80240000D01*
X88000000Y-78779000D02*
X88000000Y-80240000D01*
X87400000Y-78700000D02*
X87400000Y-80240000D01*
X89121000Y-82320000D02*
X89121000Y-83181000D01*
X88961000Y-82320000D02*
X88961000Y-83315000D01*
X87920000Y-78760000D02*
X87920000Y-80240000D01*
X87840000Y-82320000D02*
X87840000Y-83816000D01*
X89041000Y-82320000D02*
X89041000Y-83251000D01*
X87760000Y-78730000D02*
X87760000Y-80240000D01*
X84805225Y-79555000D02*
X84805225Y-80055000D01*
X88681000Y-79056000D02*
X88681000Y-80240000D01*
X88000000Y-82320000D02*
X88000000Y-83781000D01*
X87800000Y-78737000D02*
X87800000Y-80240000D01*
X89081000Y-79343000D02*
X89081000Y-80240000D01*
X87600000Y-78711000D02*
X87600000Y-80240000D01*
X88561000Y-78990000D02*
X88561000Y-80240000D01*
X88761000Y-79105000D02*
X88761000Y-80240000D01*
X88801000Y-82320000D02*
X88801000Y-83429000D01*
X89001000Y-79276000D02*
X89001000Y-80240000D01*
X88081000Y-78800000D02*
X88081000Y-80240000D01*
X89241000Y-82320000D02*
X89241000Y-83065000D01*
X88040000Y-82320000D02*
X88040000Y-83771000D01*
X87440000Y-82320000D02*
X87440000Y-83859000D01*
X87640000Y-82320000D02*
X87640000Y-83845000D01*
X88161000Y-82320000D02*
X88161000Y-83735000D01*
X89201000Y-82320000D02*
X89201000Y-83106000D01*
X89521000Y-79837000D02*
X89521000Y-82723000D01*
X87800000Y-82320000D02*
X87800000Y-83823000D01*
X87720000Y-78724000D02*
X87720000Y-80240000D01*
X88201000Y-78838000D02*
X88201000Y-80240000D01*
X87880000Y-82320000D02*
X87880000Y-83808000D01*
X88121000Y-82320000D02*
X88121000Y-83748000D01*
X88841000Y-82320000D02*
X88841000Y-83402000D01*
X89401000Y-79675000D02*
X89401000Y-82885000D01*
X88961000Y-79245000D02*
X88961000Y-80240000D01*
X89281000Y-79537000D02*
X89281000Y-80240000D01*
X88721000Y-82320000D02*
X88721000Y-83480000D01*
X89681000Y-80102000D02*
X89681000Y-82458000D01*
X88641000Y-79033000D02*
X88641000Y-80240000D01*
X88321000Y-78882000D02*
X88321000Y-80240000D01*
X89561000Y-79897000D02*
X89561000Y-82663000D01*
X89601000Y-79961000D02*
X89601000Y-82599000D01*
X87760000Y-82320000D02*
X87760000Y-83830000D01*
X88521000Y-82320000D02*
X88521000Y-83590000D01*
X89081000Y-82320000D02*
X89081000Y-83217000D01*
X87960000Y-82320000D02*
X87960000Y-83791000D01*
X89961000Y-80996000D02*
X89961000Y-81564000D01*
X89921000Y-80762000D02*
X89921000Y-81798000D01*
X88481000Y-82320000D02*
X88481000Y-83609000D01*
X89161000Y-82320000D02*
X89161000Y-83144000D01*
X87560000Y-78707000D02*
X87560000Y-80240000D01*
X87440000Y-78701000D02*
X87440000Y-80240000D01*
X87640000Y-78715000D02*
X87640000Y-80240000D01*
X87480000Y-78702000D02*
X87480000Y-80240000D01*
X89721000Y-80182000D02*
X89721000Y-82378000D01*
X89281000Y-82320000D02*
X89281000Y-83023000D01*
X89161000Y-79416000D02*
X89161000Y-80240000D01*
X88721000Y-79080000D02*
X88721000Y-80240000D01*
X88561000Y-82320000D02*
X88561000Y-83570000D01*
X88841000Y-79158000D02*
X88841000Y-80240000D01*
X88161000Y-78825000D02*
X88161000Y-80240000D01*
X87360000Y-82320000D02*
X87360000Y-83860000D01*
X84555225Y-79805000D02*
X85055225Y-79805000D01*
X89801000Y-80365000D02*
X89801000Y-82195000D01*
X89441000Y-79726000D02*
X89441000Y-82834000D01*
X89761000Y-80269000D02*
X89761000Y-82291000D01*
X88040000Y-78789000D02*
X88040000Y-80240000D01*
X88361000Y-78898000D02*
X88361000Y-80240000D01*
X87520000Y-82320000D02*
X87520000Y-83856000D01*
X88321000Y-82320000D02*
X88321000Y-83678000D01*
X88281000Y-82320000D02*
X88281000Y-83694000D01*
X87680000Y-82320000D02*
X87680000Y-83841000D01*
X88881000Y-79185000D02*
X88881000Y-80240000D01*
X89241000Y-79495000D02*
X89241000Y-80240000D01*
X88601000Y-82320000D02*
X88601000Y-83548000D01*
X88441000Y-78932000D02*
X88441000Y-80240000D01*
X88241000Y-82320000D02*
X88241000Y-83708000D01*
X88361000Y-82320000D02*
X88361000Y-83662000D01*
X88121000Y-78812000D02*
X88121000Y-80240000D01*
X88881000Y-82320000D02*
X88881000Y-83375000D01*
X88921000Y-82320000D02*
X88921000Y-83345000D01*
X89881000Y-80603000D02*
X89881000Y-81957000D01*
X88441000Y-82320000D02*
X88441000Y-83628000D01*
X87720000Y-82320000D02*
X87720000Y-83836000D01*
X89481000Y-79780000D02*
X89481000Y-82780000D01*
X89641000Y-80029000D02*
X89641000Y-82531000D01*
X89841000Y-80475000D02*
X89841000Y-82085000D01*
X87840000Y-78744000D02*
X87840000Y-80240000D01*
X88401000Y-78915000D02*
X88401000Y-80240000D01*
X87680000Y-78719000D02*
X87680000Y-80240000D01*
X87360000Y-78700000D02*
X87360000Y-80240000D01*
X88401000Y-82320000D02*
X88401000Y-83645000D01*
X89361000Y-79627000D02*
X89361000Y-80240000D01*
X89201000Y-79454000D02*
X89201000Y-80240000D01*
X88801000Y-79131000D02*
X88801000Y-80240000D01*
X87880000Y-78752000D02*
X87880000Y-80240000D01*
X87480000Y-82320000D02*
X87480000Y-83858000D01*
X88761000Y-82320000D02*
X88761000Y-83455000D01*
X88641000Y-82320000D02*
X88641000Y-83527000D01*
X87920000Y-82320000D02*
X87920000Y-83800000D01*
X88201000Y-82320000D02*
X88201000Y-83722000D01*
X87600000Y-82320000D02*
X87600000Y-83849000D01*
X87960000Y-78769000D02*
X87960000Y-80240000D01*
X89121000Y-79379000D02*
X89121000Y-80240000D01*
X88281000Y-78866000D02*
X88281000Y-80240000D01*
X88241000Y-78852000D02*
X88241000Y-80240000D01*
X88081000Y-82320000D02*
X88081000Y-83760000D01*
X87400000Y-82320000D02*
X87400000Y-83860000D01*
X88921000Y-79215000D02*
X88921000Y-80240000D01*
X87520000Y-78704000D02*
X87520000Y-80240000D01*
X89001000Y-82320000D02*
X89001000Y-83284000D01*
X89321000Y-82320000D02*
X89321000Y-82979000D01*
X89041000Y-79309000D02*
X89041000Y-80240000D01*
X88521000Y-78970000D02*
X88521000Y-80240000D01*
X88481000Y-78951000D02*
X88481000Y-80240000D01*
X88601000Y-79012000D02*
X88601000Y-80240000D01*
X87560000Y-82320000D02*
X87560000Y-83853000D01*
X88681000Y-82320000D02*
X88681000Y-83504000D01*
X89361000Y-82320000D02*
X89361000Y-82933000D01*
%TO.C,C9*%
X124921000Y-82320000D02*
X124921000Y-82933000D01*
X124241000Y-82320000D02*
X124241000Y-83504000D01*
X123120000Y-82320000D02*
X123120000Y-83853000D01*
X124161000Y-79012000D02*
X124161000Y-80240000D01*
X124041000Y-78951000D02*
X124041000Y-80240000D01*
X124081000Y-78970000D02*
X124081000Y-80240000D01*
X124601000Y-79309000D02*
X124601000Y-80240000D01*
X124881000Y-82320000D02*
X124881000Y-82979000D01*
X124561000Y-82320000D02*
X124561000Y-83284000D01*
X123080000Y-78704000D02*
X123080000Y-80240000D01*
X124481000Y-79215000D02*
X124481000Y-80240000D01*
X122960000Y-82320000D02*
X122960000Y-83860000D01*
X123641000Y-82320000D02*
X123641000Y-83760000D01*
X123801000Y-78852000D02*
X123801000Y-80240000D01*
X123841000Y-78866000D02*
X123841000Y-80240000D01*
X124681000Y-79379000D02*
X124681000Y-80240000D01*
X123520000Y-78769000D02*
X123520000Y-80240000D01*
X123160000Y-82320000D02*
X123160000Y-83849000D01*
X123761000Y-82320000D02*
X123761000Y-83722000D01*
X123480000Y-82320000D02*
X123480000Y-83800000D01*
X124201000Y-82320000D02*
X124201000Y-83527000D01*
X124321000Y-82320000D02*
X124321000Y-83455000D01*
X123040000Y-82320000D02*
X123040000Y-83858000D01*
X123440000Y-78752000D02*
X123440000Y-80240000D01*
X124361000Y-79131000D02*
X124361000Y-80240000D01*
X124761000Y-79454000D02*
X124761000Y-80240000D01*
X124921000Y-79627000D02*
X124921000Y-80240000D01*
X123961000Y-82320000D02*
X123961000Y-83645000D01*
X122920000Y-78700000D02*
X122920000Y-80240000D01*
X123240000Y-78719000D02*
X123240000Y-80240000D01*
X123961000Y-78915000D02*
X123961000Y-80240000D01*
X123400000Y-78744000D02*
X123400000Y-80240000D01*
X125401000Y-80475000D02*
X125401000Y-82085000D01*
X125201000Y-80029000D02*
X125201000Y-82531000D01*
X125041000Y-79780000D02*
X125041000Y-82780000D01*
X123280000Y-82320000D02*
X123280000Y-83836000D01*
X124001000Y-82320000D02*
X124001000Y-83628000D01*
X125441000Y-80603000D02*
X125441000Y-81957000D01*
X124481000Y-82320000D02*
X124481000Y-83345000D01*
X124441000Y-82320000D02*
X124441000Y-83375000D01*
X123681000Y-78812000D02*
X123681000Y-80240000D01*
X123921000Y-82320000D02*
X123921000Y-83662000D01*
X123801000Y-82320000D02*
X123801000Y-83708000D01*
X124001000Y-78932000D02*
X124001000Y-80240000D01*
X124161000Y-82320000D02*
X124161000Y-83548000D01*
X124801000Y-79495000D02*
X124801000Y-80240000D01*
X124441000Y-79185000D02*
X124441000Y-80240000D01*
X123240000Y-82320000D02*
X123240000Y-83841000D01*
X123841000Y-82320000D02*
X123841000Y-83694000D01*
X123881000Y-82320000D02*
X123881000Y-83678000D01*
X123080000Y-82320000D02*
X123080000Y-83856000D01*
X123921000Y-78898000D02*
X123921000Y-80240000D01*
X123600000Y-78789000D02*
X123600000Y-80240000D01*
X125321000Y-80269000D02*
X125321000Y-82291000D01*
X125001000Y-79726000D02*
X125001000Y-82834000D01*
X125361000Y-80365000D02*
X125361000Y-82195000D01*
X120115225Y-79805000D02*
X120615225Y-79805000D01*
X122920000Y-82320000D02*
X122920000Y-83860000D01*
X123721000Y-78825000D02*
X123721000Y-80240000D01*
X124401000Y-79158000D02*
X124401000Y-80240000D01*
X124121000Y-82320000D02*
X124121000Y-83570000D01*
X124281000Y-79080000D02*
X124281000Y-80240000D01*
X124721000Y-79416000D02*
X124721000Y-80240000D01*
X124841000Y-82320000D02*
X124841000Y-83023000D01*
X125281000Y-80182000D02*
X125281000Y-82378000D01*
X123040000Y-78702000D02*
X123040000Y-80240000D01*
X123200000Y-78715000D02*
X123200000Y-80240000D01*
X123000000Y-78701000D02*
X123000000Y-80240000D01*
X123120000Y-78707000D02*
X123120000Y-80240000D01*
X124721000Y-82320000D02*
X124721000Y-83144000D01*
X124041000Y-82320000D02*
X124041000Y-83609000D01*
X125481000Y-80762000D02*
X125481000Y-81798000D01*
X125521000Y-80996000D02*
X125521000Y-81564000D01*
X123520000Y-82320000D02*
X123520000Y-83791000D01*
X124641000Y-82320000D02*
X124641000Y-83217000D01*
X124081000Y-82320000D02*
X124081000Y-83590000D01*
X123320000Y-82320000D02*
X123320000Y-83830000D01*
X125161000Y-79961000D02*
X125161000Y-82599000D01*
X125121000Y-79897000D02*
X125121000Y-82663000D01*
X123881000Y-78882000D02*
X123881000Y-80240000D01*
X124201000Y-79033000D02*
X124201000Y-80240000D01*
X125241000Y-80102000D02*
X125241000Y-82458000D01*
X124281000Y-82320000D02*
X124281000Y-83480000D01*
X124841000Y-79537000D02*
X124841000Y-80240000D01*
X124521000Y-79245000D02*
X124521000Y-80240000D01*
X124961000Y-79675000D02*
X124961000Y-82885000D01*
X124401000Y-82320000D02*
X124401000Y-83402000D01*
X123681000Y-82320000D02*
X123681000Y-83748000D01*
X123440000Y-82320000D02*
X123440000Y-83808000D01*
X123761000Y-78838000D02*
X123761000Y-80240000D01*
X123280000Y-78724000D02*
X123280000Y-80240000D01*
X123360000Y-82320000D02*
X123360000Y-83823000D01*
X125081000Y-79837000D02*
X125081000Y-82723000D01*
X124761000Y-82320000D02*
X124761000Y-83106000D01*
X123721000Y-82320000D02*
X123721000Y-83735000D01*
X123200000Y-82320000D02*
X123200000Y-83845000D01*
X123000000Y-82320000D02*
X123000000Y-83859000D01*
X123600000Y-82320000D02*
X123600000Y-83771000D01*
X124801000Y-82320000D02*
X124801000Y-83065000D01*
X123641000Y-78800000D02*
X123641000Y-80240000D01*
X124561000Y-79276000D02*
X124561000Y-80240000D01*
X124361000Y-82320000D02*
X124361000Y-83429000D01*
X124321000Y-79105000D02*
X124321000Y-80240000D01*
X124121000Y-78990000D02*
X124121000Y-80240000D01*
X123160000Y-78711000D02*
X123160000Y-80240000D01*
X124641000Y-79343000D02*
X124641000Y-80240000D01*
X123360000Y-78737000D02*
X123360000Y-80240000D01*
X123560000Y-82320000D02*
X123560000Y-83781000D01*
X124241000Y-79056000D02*
X124241000Y-80240000D01*
X120365225Y-79555000D02*
X120365225Y-80055000D01*
X123320000Y-78730000D02*
X123320000Y-80240000D01*
X124601000Y-82320000D02*
X124601000Y-83251000D01*
X123400000Y-82320000D02*
X123400000Y-83816000D01*
X123480000Y-78760000D02*
X123480000Y-80240000D01*
X124521000Y-82320000D02*
X124521000Y-83315000D01*
X124681000Y-82320000D02*
X124681000Y-83181000D01*
X122960000Y-78700000D02*
X122960000Y-80240000D01*
X123560000Y-78779000D02*
X123560000Y-80240000D01*
X124881000Y-79581000D02*
X124881000Y-80240000D01*
X125540000Y-81280000D02*
G75*
G03*
X125540000Y-81280000I-2620000J0D01*
G01*
%TO.C,C8*%
X107141000Y-82320000D02*
X107141000Y-82933000D01*
X106461000Y-82320000D02*
X106461000Y-83504000D01*
X105340000Y-82320000D02*
X105340000Y-83853000D01*
X106381000Y-79012000D02*
X106381000Y-80240000D01*
X106261000Y-78951000D02*
X106261000Y-80240000D01*
X106301000Y-78970000D02*
X106301000Y-80240000D01*
X106821000Y-79309000D02*
X106821000Y-80240000D01*
X107101000Y-82320000D02*
X107101000Y-82979000D01*
X106781000Y-82320000D02*
X106781000Y-83284000D01*
X105300000Y-78704000D02*
X105300000Y-80240000D01*
X106701000Y-79215000D02*
X106701000Y-80240000D01*
X105180000Y-82320000D02*
X105180000Y-83860000D01*
X105861000Y-82320000D02*
X105861000Y-83760000D01*
X106021000Y-78852000D02*
X106021000Y-80240000D01*
X106061000Y-78866000D02*
X106061000Y-80240000D01*
X106901000Y-79379000D02*
X106901000Y-80240000D01*
X105740000Y-78769000D02*
X105740000Y-80240000D01*
X105380000Y-82320000D02*
X105380000Y-83849000D01*
X105981000Y-82320000D02*
X105981000Y-83722000D01*
X105700000Y-82320000D02*
X105700000Y-83800000D01*
X106421000Y-82320000D02*
X106421000Y-83527000D01*
X106541000Y-82320000D02*
X106541000Y-83455000D01*
X105260000Y-82320000D02*
X105260000Y-83858000D01*
X105660000Y-78752000D02*
X105660000Y-80240000D01*
X106581000Y-79131000D02*
X106581000Y-80240000D01*
X106981000Y-79454000D02*
X106981000Y-80240000D01*
X107141000Y-79627000D02*
X107141000Y-80240000D01*
X106181000Y-82320000D02*
X106181000Y-83645000D01*
X105140000Y-78700000D02*
X105140000Y-80240000D01*
X105460000Y-78719000D02*
X105460000Y-80240000D01*
X106181000Y-78915000D02*
X106181000Y-80240000D01*
X105620000Y-78744000D02*
X105620000Y-80240000D01*
X107621000Y-80475000D02*
X107621000Y-82085000D01*
X107421000Y-80029000D02*
X107421000Y-82531000D01*
X107261000Y-79780000D02*
X107261000Y-82780000D01*
X105500000Y-82320000D02*
X105500000Y-83836000D01*
X106221000Y-82320000D02*
X106221000Y-83628000D01*
X107661000Y-80603000D02*
X107661000Y-81957000D01*
X106701000Y-82320000D02*
X106701000Y-83345000D01*
X106661000Y-82320000D02*
X106661000Y-83375000D01*
X105901000Y-78812000D02*
X105901000Y-80240000D01*
X106141000Y-82320000D02*
X106141000Y-83662000D01*
X106021000Y-82320000D02*
X106021000Y-83708000D01*
X106221000Y-78932000D02*
X106221000Y-80240000D01*
X106381000Y-82320000D02*
X106381000Y-83548000D01*
X107021000Y-79495000D02*
X107021000Y-80240000D01*
X106661000Y-79185000D02*
X106661000Y-80240000D01*
X105460000Y-82320000D02*
X105460000Y-83841000D01*
X106061000Y-82320000D02*
X106061000Y-83694000D01*
X106101000Y-82320000D02*
X106101000Y-83678000D01*
X105300000Y-82320000D02*
X105300000Y-83856000D01*
X106141000Y-78898000D02*
X106141000Y-80240000D01*
X105820000Y-78789000D02*
X105820000Y-80240000D01*
X107541000Y-80269000D02*
X107541000Y-82291000D01*
X107221000Y-79726000D02*
X107221000Y-82834000D01*
X107581000Y-80365000D02*
X107581000Y-82195000D01*
X102335225Y-79805000D02*
X102835225Y-79805000D01*
X105140000Y-82320000D02*
X105140000Y-83860000D01*
X105941000Y-78825000D02*
X105941000Y-80240000D01*
X106621000Y-79158000D02*
X106621000Y-80240000D01*
X106341000Y-82320000D02*
X106341000Y-83570000D01*
X106501000Y-79080000D02*
X106501000Y-80240000D01*
X106941000Y-79416000D02*
X106941000Y-80240000D01*
X107061000Y-82320000D02*
X107061000Y-83023000D01*
X107501000Y-80182000D02*
X107501000Y-82378000D01*
X105260000Y-78702000D02*
X105260000Y-80240000D01*
X105420000Y-78715000D02*
X105420000Y-80240000D01*
X105220000Y-78701000D02*
X105220000Y-80240000D01*
X105340000Y-78707000D02*
X105340000Y-80240000D01*
X106941000Y-82320000D02*
X106941000Y-83144000D01*
X106261000Y-82320000D02*
X106261000Y-83609000D01*
X107701000Y-80762000D02*
X107701000Y-81798000D01*
X107741000Y-80996000D02*
X107741000Y-81564000D01*
X105740000Y-82320000D02*
X105740000Y-83791000D01*
X106861000Y-82320000D02*
X106861000Y-83217000D01*
X106301000Y-82320000D02*
X106301000Y-83590000D01*
X105540000Y-82320000D02*
X105540000Y-83830000D01*
X107381000Y-79961000D02*
X107381000Y-82599000D01*
X107341000Y-79897000D02*
X107341000Y-82663000D01*
X106101000Y-78882000D02*
X106101000Y-80240000D01*
X106421000Y-79033000D02*
X106421000Y-80240000D01*
X107461000Y-80102000D02*
X107461000Y-82458000D01*
X106501000Y-82320000D02*
X106501000Y-83480000D01*
X107061000Y-79537000D02*
X107061000Y-80240000D01*
X106741000Y-79245000D02*
X106741000Y-80240000D01*
X107181000Y-79675000D02*
X107181000Y-82885000D01*
X106621000Y-82320000D02*
X106621000Y-83402000D01*
X105901000Y-82320000D02*
X105901000Y-83748000D01*
X105660000Y-82320000D02*
X105660000Y-83808000D01*
X105981000Y-78838000D02*
X105981000Y-80240000D01*
X105500000Y-78724000D02*
X105500000Y-80240000D01*
X105580000Y-82320000D02*
X105580000Y-83823000D01*
X107301000Y-79837000D02*
X107301000Y-82723000D01*
X106981000Y-82320000D02*
X106981000Y-83106000D01*
X105941000Y-82320000D02*
X105941000Y-83735000D01*
X105420000Y-82320000D02*
X105420000Y-83845000D01*
X105220000Y-82320000D02*
X105220000Y-83859000D01*
X105820000Y-82320000D02*
X105820000Y-83771000D01*
X107021000Y-82320000D02*
X107021000Y-83065000D01*
X105861000Y-78800000D02*
X105861000Y-80240000D01*
X106781000Y-79276000D02*
X106781000Y-80240000D01*
X106581000Y-82320000D02*
X106581000Y-83429000D01*
X106541000Y-79105000D02*
X106541000Y-80240000D01*
X106341000Y-78990000D02*
X106341000Y-80240000D01*
X105380000Y-78711000D02*
X105380000Y-80240000D01*
X106861000Y-79343000D02*
X106861000Y-80240000D01*
X105580000Y-78737000D02*
X105580000Y-80240000D01*
X105780000Y-82320000D02*
X105780000Y-83781000D01*
X106461000Y-79056000D02*
X106461000Y-80240000D01*
X102585225Y-79555000D02*
X102585225Y-80055000D01*
X105540000Y-78730000D02*
X105540000Y-80240000D01*
X106821000Y-82320000D02*
X106821000Y-83251000D01*
X105620000Y-82320000D02*
X105620000Y-83816000D01*
X105700000Y-78760000D02*
X105700000Y-80240000D01*
X106741000Y-82320000D02*
X106741000Y-83315000D01*
X106901000Y-82320000D02*
X106901000Y-83181000D01*
X105180000Y-78700000D02*
X105180000Y-80240000D01*
X105780000Y-78779000D02*
X105780000Y-80240000D01*
X107101000Y-79581000D02*
X107101000Y-80240000D01*
X107760000Y-81280000D02*
G75*
G03*
X107760000Y-81280000I-2620000J0D01*
G01*
%TO.C,C7*%
X142701000Y-82460000D02*
X142701000Y-83073000D01*
X142021000Y-82460000D02*
X142021000Y-83644000D01*
X140900000Y-82460000D02*
X140900000Y-83993000D01*
X141941000Y-79152000D02*
X141941000Y-80380000D01*
X141821000Y-79091000D02*
X141821000Y-80380000D01*
X141861000Y-79110000D02*
X141861000Y-80380000D01*
X142381000Y-79449000D02*
X142381000Y-80380000D01*
X142661000Y-82460000D02*
X142661000Y-83119000D01*
X142341000Y-82460000D02*
X142341000Y-83424000D01*
X140860000Y-78844000D02*
X140860000Y-80380000D01*
X142261000Y-79355000D02*
X142261000Y-80380000D01*
X140740000Y-82460000D02*
X140740000Y-84000000D01*
X141421000Y-82460000D02*
X141421000Y-83900000D01*
X141581000Y-78992000D02*
X141581000Y-80380000D01*
X141621000Y-79006000D02*
X141621000Y-80380000D01*
X142461000Y-79519000D02*
X142461000Y-80380000D01*
X141300000Y-78909000D02*
X141300000Y-80380000D01*
X140940000Y-82460000D02*
X140940000Y-83989000D01*
X141541000Y-82460000D02*
X141541000Y-83862000D01*
X141260000Y-82460000D02*
X141260000Y-83940000D01*
X141981000Y-82460000D02*
X141981000Y-83667000D01*
X142101000Y-82460000D02*
X142101000Y-83595000D01*
X140820000Y-82460000D02*
X140820000Y-83998000D01*
X141220000Y-78892000D02*
X141220000Y-80380000D01*
X142141000Y-79271000D02*
X142141000Y-80380000D01*
X142541000Y-79594000D02*
X142541000Y-80380000D01*
X142701000Y-79767000D02*
X142701000Y-80380000D01*
X141741000Y-82460000D02*
X141741000Y-83785000D01*
X140700000Y-78840000D02*
X140700000Y-80380000D01*
X141020000Y-78859000D02*
X141020000Y-80380000D01*
X141741000Y-79055000D02*
X141741000Y-80380000D01*
X141180000Y-78884000D02*
X141180000Y-80380000D01*
X143181000Y-80615000D02*
X143181000Y-82225000D01*
X142981000Y-80169000D02*
X142981000Y-82671000D01*
X142821000Y-79920000D02*
X142821000Y-82920000D01*
X141060000Y-82460000D02*
X141060000Y-83976000D01*
X141781000Y-82460000D02*
X141781000Y-83768000D01*
X143221000Y-80743000D02*
X143221000Y-82097000D01*
X142261000Y-82460000D02*
X142261000Y-83485000D01*
X142221000Y-82460000D02*
X142221000Y-83515000D01*
X141461000Y-78952000D02*
X141461000Y-80380000D01*
X141701000Y-82460000D02*
X141701000Y-83802000D01*
X141581000Y-82460000D02*
X141581000Y-83848000D01*
X141781000Y-79072000D02*
X141781000Y-80380000D01*
X141941000Y-82460000D02*
X141941000Y-83688000D01*
X142581000Y-79635000D02*
X142581000Y-80380000D01*
X142221000Y-79325000D02*
X142221000Y-80380000D01*
X141020000Y-82460000D02*
X141020000Y-83981000D01*
X141621000Y-82460000D02*
X141621000Y-83834000D01*
X141661000Y-82460000D02*
X141661000Y-83818000D01*
X140860000Y-82460000D02*
X140860000Y-83996000D01*
X141701000Y-79038000D02*
X141701000Y-80380000D01*
X141380000Y-78929000D02*
X141380000Y-80380000D01*
X143101000Y-80409000D02*
X143101000Y-82431000D01*
X142781000Y-79866000D02*
X142781000Y-82974000D01*
X143141000Y-80505000D02*
X143141000Y-82335000D01*
X137895225Y-79945000D02*
X138395225Y-79945000D01*
X140700000Y-82460000D02*
X140700000Y-84000000D01*
X141501000Y-78965000D02*
X141501000Y-80380000D01*
X142181000Y-79298000D02*
X142181000Y-80380000D01*
X141901000Y-82460000D02*
X141901000Y-83710000D01*
X142061000Y-79220000D02*
X142061000Y-80380000D01*
X142501000Y-79556000D02*
X142501000Y-80380000D01*
X142621000Y-82460000D02*
X142621000Y-83163000D01*
X143061000Y-80322000D02*
X143061000Y-82518000D01*
X140820000Y-78842000D02*
X140820000Y-80380000D01*
X140980000Y-78855000D02*
X140980000Y-80380000D01*
X140780000Y-78841000D02*
X140780000Y-80380000D01*
X140900000Y-78847000D02*
X140900000Y-80380000D01*
X142501000Y-82460000D02*
X142501000Y-83284000D01*
X141821000Y-82460000D02*
X141821000Y-83749000D01*
X143261000Y-80902000D02*
X143261000Y-81938000D01*
X143301000Y-81136000D02*
X143301000Y-81704000D01*
X141300000Y-82460000D02*
X141300000Y-83931000D01*
X142421000Y-82460000D02*
X142421000Y-83357000D01*
X141861000Y-82460000D02*
X141861000Y-83730000D01*
X141100000Y-82460000D02*
X141100000Y-83970000D01*
X142941000Y-80101000D02*
X142941000Y-82739000D01*
X142901000Y-80037000D02*
X142901000Y-82803000D01*
X141661000Y-79022000D02*
X141661000Y-80380000D01*
X141981000Y-79173000D02*
X141981000Y-80380000D01*
X143021000Y-80242000D02*
X143021000Y-82598000D01*
X142061000Y-82460000D02*
X142061000Y-83620000D01*
X142621000Y-79677000D02*
X142621000Y-80380000D01*
X142301000Y-79385000D02*
X142301000Y-80380000D01*
X142741000Y-79815000D02*
X142741000Y-83025000D01*
X142181000Y-82460000D02*
X142181000Y-83542000D01*
X141461000Y-82460000D02*
X141461000Y-83888000D01*
X141220000Y-82460000D02*
X141220000Y-83948000D01*
X141541000Y-78978000D02*
X141541000Y-80380000D01*
X141060000Y-78864000D02*
X141060000Y-80380000D01*
X141140000Y-82460000D02*
X141140000Y-83963000D01*
X142861000Y-79977000D02*
X142861000Y-82863000D01*
X142541000Y-82460000D02*
X142541000Y-83246000D01*
X141501000Y-82460000D02*
X141501000Y-83875000D01*
X140980000Y-82460000D02*
X140980000Y-83985000D01*
X140780000Y-82460000D02*
X140780000Y-83999000D01*
X141380000Y-82460000D02*
X141380000Y-83911000D01*
X142581000Y-82460000D02*
X142581000Y-83205000D01*
X141421000Y-78940000D02*
X141421000Y-80380000D01*
X142341000Y-79416000D02*
X142341000Y-80380000D01*
X142141000Y-82460000D02*
X142141000Y-83569000D01*
X142101000Y-79245000D02*
X142101000Y-80380000D01*
X141901000Y-79130000D02*
X141901000Y-80380000D01*
X140940000Y-78851000D02*
X140940000Y-80380000D01*
X142421000Y-79483000D02*
X142421000Y-80380000D01*
X141140000Y-78877000D02*
X141140000Y-80380000D01*
X141340000Y-82460000D02*
X141340000Y-83921000D01*
X142021000Y-79196000D02*
X142021000Y-80380000D01*
X138145225Y-79695000D02*
X138145225Y-80195000D01*
X141100000Y-78870000D02*
X141100000Y-80380000D01*
X142381000Y-82460000D02*
X142381000Y-83391000D01*
X141180000Y-82460000D02*
X141180000Y-83956000D01*
X141260000Y-78900000D02*
X141260000Y-80380000D01*
X142301000Y-82460000D02*
X142301000Y-83455000D01*
X142461000Y-82460000D02*
X142461000Y-83321000D01*
X140740000Y-78840000D02*
X140740000Y-80380000D01*
X141340000Y-78919000D02*
X141340000Y-80380000D01*
X142661000Y-79721000D02*
X142661000Y-80380000D01*
X143320000Y-81420000D02*
G75*
G03*
X143320000Y-81420000I-2620000J0D01*
G01*
%TO.C,C6*%
X82360000Y-81280000D02*
G75*
G03*
X82360000Y-81280000I-2620000J0D01*
G01*
X81701000Y-79581000D02*
X81701000Y-80240000D01*
X80380000Y-78779000D02*
X80380000Y-80240000D01*
X79780000Y-78700000D02*
X79780000Y-80240000D01*
X81501000Y-82320000D02*
X81501000Y-83181000D01*
X81341000Y-82320000D02*
X81341000Y-83315000D01*
X80300000Y-78760000D02*
X80300000Y-80240000D01*
X80220000Y-82320000D02*
X80220000Y-83816000D01*
X81421000Y-82320000D02*
X81421000Y-83251000D01*
X80140000Y-78730000D02*
X80140000Y-80240000D01*
X77185225Y-79555000D02*
X77185225Y-80055000D01*
X81061000Y-79056000D02*
X81061000Y-80240000D01*
X80380000Y-82320000D02*
X80380000Y-83781000D01*
X80180000Y-78737000D02*
X80180000Y-80240000D01*
X81461000Y-79343000D02*
X81461000Y-80240000D01*
X79980000Y-78711000D02*
X79980000Y-80240000D01*
X80941000Y-78990000D02*
X80941000Y-80240000D01*
X81141000Y-79105000D02*
X81141000Y-80240000D01*
X81181000Y-82320000D02*
X81181000Y-83429000D01*
X81381000Y-79276000D02*
X81381000Y-80240000D01*
X80461000Y-78800000D02*
X80461000Y-80240000D01*
X81621000Y-82320000D02*
X81621000Y-83065000D01*
X80420000Y-82320000D02*
X80420000Y-83771000D01*
X79820000Y-82320000D02*
X79820000Y-83859000D01*
X80020000Y-82320000D02*
X80020000Y-83845000D01*
X80541000Y-82320000D02*
X80541000Y-83735000D01*
X81581000Y-82320000D02*
X81581000Y-83106000D01*
X81901000Y-79837000D02*
X81901000Y-82723000D01*
X80180000Y-82320000D02*
X80180000Y-83823000D01*
X80100000Y-78724000D02*
X80100000Y-80240000D01*
X80581000Y-78838000D02*
X80581000Y-80240000D01*
X80260000Y-82320000D02*
X80260000Y-83808000D01*
X80501000Y-82320000D02*
X80501000Y-83748000D01*
X81221000Y-82320000D02*
X81221000Y-83402000D01*
X81781000Y-79675000D02*
X81781000Y-82885000D01*
X81341000Y-79245000D02*
X81341000Y-80240000D01*
X81661000Y-79537000D02*
X81661000Y-80240000D01*
X81101000Y-82320000D02*
X81101000Y-83480000D01*
X82061000Y-80102000D02*
X82061000Y-82458000D01*
X81021000Y-79033000D02*
X81021000Y-80240000D01*
X80701000Y-78882000D02*
X80701000Y-80240000D01*
X81941000Y-79897000D02*
X81941000Y-82663000D01*
X81981000Y-79961000D02*
X81981000Y-82599000D01*
X80140000Y-82320000D02*
X80140000Y-83830000D01*
X80901000Y-82320000D02*
X80901000Y-83590000D01*
X81461000Y-82320000D02*
X81461000Y-83217000D01*
X80340000Y-82320000D02*
X80340000Y-83791000D01*
X82341000Y-80996000D02*
X82341000Y-81564000D01*
X82301000Y-80762000D02*
X82301000Y-81798000D01*
X80861000Y-82320000D02*
X80861000Y-83609000D01*
X81541000Y-82320000D02*
X81541000Y-83144000D01*
X79940000Y-78707000D02*
X79940000Y-80240000D01*
X79820000Y-78701000D02*
X79820000Y-80240000D01*
X80020000Y-78715000D02*
X80020000Y-80240000D01*
X79860000Y-78702000D02*
X79860000Y-80240000D01*
X82101000Y-80182000D02*
X82101000Y-82378000D01*
X81661000Y-82320000D02*
X81661000Y-83023000D01*
X81541000Y-79416000D02*
X81541000Y-80240000D01*
X81101000Y-79080000D02*
X81101000Y-80240000D01*
X80941000Y-82320000D02*
X80941000Y-83570000D01*
X81221000Y-79158000D02*
X81221000Y-80240000D01*
X80541000Y-78825000D02*
X80541000Y-80240000D01*
X79740000Y-82320000D02*
X79740000Y-83860000D01*
X76935225Y-79805000D02*
X77435225Y-79805000D01*
X82181000Y-80365000D02*
X82181000Y-82195000D01*
X81821000Y-79726000D02*
X81821000Y-82834000D01*
X82141000Y-80269000D02*
X82141000Y-82291000D01*
X80420000Y-78789000D02*
X80420000Y-80240000D01*
X80741000Y-78898000D02*
X80741000Y-80240000D01*
X79900000Y-82320000D02*
X79900000Y-83856000D01*
X80701000Y-82320000D02*
X80701000Y-83678000D01*
X80661000Y-82320000D02*
X80661000Y-83694000D01*
X80060000Y-82320000D02*
X80060000Y-83841000D01*
X81261000Y-79185000D02*
X81261000Y-80240000D01*
X81621000Y-79495000D02*
X81621000Y-80240000D01*
X80981000Y-82320000D02*
X80981000Y-83548000D01*
X80821000Y-78932000D02*
X80821000Y-80240000D01*
X80621000Y-82320000D02*
X80621000Y-83708000D01*
X80741000Y-82320000D02*
X80741000Y-83662000D01*
X80501000Y-78812000D02*
X80501000Y-80240000D01*
X81261000Y-82320000D02*
X81261000Y-83375000D01*
X81301000Y-82320000D02*
X81301000Y-83345000D01*
X82261000Y-80603000D02*
X82261000Y-81957000D01*
X80821000Y-82320000D02*
X80821000Y-83628000D01*
X80100000Y-82320000D02*
X80100000Y-83836000D01*
X81861000Y-79780000D02*
X81861000Y-82780000D01*
X82021000Y-80029000D02*
X82021000Y-82531000D01*
X82221000Y-80475000D02*
X82221000Y-82085000D01*
X80220000Y-78744000D02*
X80220000Y-80240000D01*
X80781000Y-78915000D02*
X80781000Y-80240000D01*
X80060000Y-78719000D02*
X80060000Y-80240000D01*
X79740000Y-78700000D02*
X79740000Y-80240000D01*
X80781000Y-82320000D02*
X80781000Y-83645000D01*
X81741000Y-79627000D02*
X81741000Y-80240000D01*
X81581000Y-79454000D02*
X81581000Y-80240000D01*
X81181000Y-79131000D02*
X81181000Y-80240000D01*
X80260000Y-78752000D02*
X80260000Y-80240000D01*
X79860000Y-82320000D02*
X79860000Y-83858000D01*
X81141000Y-82320000D02*
X81141000Y-83455000D01*
X81021000Y-82320000D02*
X81021000Y-83527000D01*
X80300000Y-82320000D02*
X80300000Y-83800000D01*
X80581000Y-82320000D02*
X80581000Y-83722000D01*
X79980000Y-82320000D02*
X79980000Y-83849000D01*
X80340000Y-78769000D02*
X80340000Y-80240000D01*
X81501000Y-79379000D02*
X81501000Y-80240000D01*
X80661000Y-78866000D02*
X80661000Y-80240000D01*
X80621000Y-78852000D02*
X80621000Y-80240000D01*
X80461000Y-82320000D02*
X80461000Y-83760000D01*
X79780000Y-82320000D02*
X79780000Y-83860000D01*
X81301000Y-79215000D02*
X81301000Y-80240000D01*
X79900000Y-78704000D02*
X79900000Y-80240000D01*
X81381000Y-82320000D02*
X81381000Y-83284000D01*
X81701000Y-82320000D02*
X81701000Y-82979000D01*
X81421000Y-79309000D02*
X81421000Y-80240000D01*
X80901000Y-78970000D02*
X80901000Y-80240000D01*
X80861000Y-78951000D02*
X80861000Y-80240000D01*
X80981000Y-79012000D02*
X80981000Y-80240000D01*
X79940000Y-82320000D02*
X79940000Y-83853000D01*
X81061000Y-82320000D02*
X81061000Y-83504000D01*
X81741000Y-82320000D02*
X81741000Y-82933000D01*
%TO.C,C5*%
X180801000Y-92480000D02*
X180801000Y-93093000D01*
X180121000Y-92480000D02*
X180121000Y-93664000D01*
X179000000Y-92480000D02*
X179000000Y-94013000D01*
X180041000Y-89172000D02*
X180041000Y-90400000D01*
X179921000Y-89111000D02*
X179921000Y-90400000D01*
X179961000Y-89130000D02*
X179961000Y-90400000D01*
X180481000Y-89469000D02*
X180481000Y-90400000D01*
X180761000Y-92480000D02*
X180761000Y-93139000D01*
X180441000Y-92480000D02*
X180441000Y-93444000D01*
X178960000Y-88864000D02*
X178960000Y-90400000D01*
X180361000Y-89375000D02*
X180361000Y-90400000D01*
X178840000Y-92480000D02*
X178840000Y-94020000D01*
X179521000Y-92480000D02*
X179521000Y-93920000D01*
X179681000Y-89012000D02*
X179681000Y-90400000D01*
X179721000Y-89026000D02*
X179721000Y-90400000D01*
X180561000Y-89539000D02*
X180561000Y-90400000D01*
X179400000Y-88929000D02*
X179400000Y-90400000D01*
X179040000Y-92480000D02*
X179040000Y-94009000D01*
X179641000Y-92480000D02*
X179641000Y-93882000D01*
X179360000Y-92480000D02*
X179360000Y-93960000D01*
X180081000Y-92480000D02*
X180081000Y-93687000D01*
X180201000Y-92480000D02*
X180201000Y-93615000D01*
X178920000Y-92480000D02*
X178920000Y-94018000D01*
X179320000Y-88912000D02*
X179320000Y-90400000D01*
X180241000Y-89291000D02*
X180241000Y-90400000D01*
X180641000Y-89614000D02*
X180641000Y-90400000D01*
X180801000Y-89787000D02*
X180801000Y-90400000D01*
X179841000Y-92480000D02*
X179841000Y-93805000D01*
X178800000Y-88860000D02*
X178800000Y-90400000D01*
X179120000Y-88879000D02*
X179120000Y-90400000D01*
X179841000Y-89075000D02*
X179841000Y-90400000D01*
X179280000Y-88904000D02*
X179280000Y-90400000D01*
X181281000Y-90635000D02*
X181281000Y-92245000D01*
X181081000Y-90189000D02*
X181081000Y-92691000D01*
X180921000Y-89940000D02*
X180921000Y-92940000D01*
X179160000Y-92480000D02*
X179160000Y-93996000D01*
X179881000Y-92480000D02*
X179881000Y-93788000D01*
X181321000Y-90763000D02*
X181321000Y-92117000D01*
X180361000Y-92480000D02*
X180361000Y-93505000D01*
X180321000Y-92480000D02*
X180321000Y-93535000D01*
X179561000Y-88972000D02*
X179561000Y-90400000D01*
X179801000Y-92480000D02*
X179801000Y-93822000D01*
X179681000Y-92480000D02*
X179681000Y-93868000D01*
X179881000Y-89092000D02*
X179881000Y-90400000D01*
X180041000Y-92480000D02*
X180041000Y-93708000D01*
X180681000Y-89655000D02*
X180681000Y-90400000D01*
X180321000Y-89345000D02*
X180321000Y-90400000D01*
X179120000Y-92480000D02*
X179120000Y-94001000D01*
X179721000Y-92480000D02*
X179721000Y-93854000D01*
X179761000Y-92480000D02*
X179761000Y-93838000D01*
X178960000Y-92480000D02*
X178960000Y-94016000D01*
X179801000Y-89058000D02*
X179801000Y-90400000D01*
X179480000Y-88949000D02*
X179480000Y-90400000D01*
X181201000Y-90429000D02*
X181201000Y-92451000D01*
X180881000Y-89886000D02*
X180881000Y-92994000D01*
X181241000Y-90525000D02*
X181241000Y-92355000D01*
X175995225Y-89965000D02*
X176495225Y-89965000D01*
X178800000Y-92480000D02*
X178800000Y-94020000D01*
X179601000Y-88985000D02*
X179601000Y-90400000D01*
X180281000Y-89318000D02*
X180281000Y-90400000D01*
X180001000Y-92480000D02*
X180001000Y-93730000D01*
X180161000Y-89240000D02*
X180161000Y-90400000D01*
X180601000Y-89576000D02*
X180601000Y-90400000D01*
X180721000Y-92480000D02*
X180721000Y-93183000D01*
X181161000Y-90342000D02*
X181161000Y-92538000D01*
X178920000Y-88862000D02*
X178920000Y-90400000D01*
X179080000Y-88875000D02*
X179080000Y-90400000D01*
X178880000Y-88861000D02*
X178880000Y-90400000D01*
X179000000Y-88867000D02*
X179000000Y-90400000D01*
X180601000Y-92480000D02*
X180601000Y-93304000D01*
X179921000Y-92480000D02*
X179921000Y-93769000D01*
X181361000Y-90922000D02*
X181361000Y-91958000D01*
X181401000Y-91156000D02*
X181401000Y-91724000D01*
X179400000Y-92480000D02*
X179400000Y-93951000D01*
X180521000Y-92480000D02*
X180521000Y-93377000D01*
X179961000Y-92480000D02*
X179961000Y-93750000D01*
X179200000Y-92480000D02*
X179200000Y-93990000D01*
X181041000Y-90121000D02*
X181041000Y-92759000D01*
X181001000Y-90057000D02*
X181001000Y-92823000D01*
X179761000Y-89042000D02*
X179761000Y-90400000D01*
X180081000Y-89193000D02*
X180081000Y-90400000D01*
X181121000Y-90262000D02*
X181121000Y-92618000D01*
X180161000Y-92480000D02*
X180161000Y-93640000D01*
X180721000Y-89697000D02*
X180721000Y-90400000D01*
X180401000Y-89405000D02*
X180401000Y-90400000D01*
X180841000Y-89835000D02*
X180841000Y-93045000D01*
X180281000Y-92480000D02*
X180281000Y-93562000D01*
X179561000Y-92480000D02*
X179561000Y-93908000D01*
X179320000Y-92480000D02*
X179320000Y-93968000D01*
X179641000Y-88998000D02*
X179641000Y-90400000D01*
X179160000Y-88884000D02*
X179160000Y-90400000D01*
X179240000Y-92480000D02*
X179240000Y-93983000D01*
X180961000Y-89997000D02*
X180961000Y-92883000D01*
X180641000Y-92480000D02*
X180641000Y-93266000D01*
X179601000Y-92480000D02*
X179601000Y-93895000D01*
X179080000Y-92480000D02*
X179080000Y-94005000D01*
X178880000Y-92480000D02*
X178880000Y-94019000D01*
X179480000Y-92480000D02*
X179480000Y-93931000D01*
X180681000Y-92480000D02*
X180681000Y-93225000D01*
X179521000Y-88960000D02*
X179521000Y-90400000D01*
X180441000Y-89436000D02*
X180441000Y-90400000D01*
X180241000Y-92480000D02*
X180241000Y-93589000D01*
X180201000Y-89265000D02*
X180201000Y-90400000D01*
X180001000Y-89150000D02*
X180001000Y-90400000D01*
X179040000Y-88871000D02*
X179040000Y-90400000D01*
X180521000Y-89503000D02*
X180521000Y-90400000D01*
X179240000Y-88897000D02*
X179240000Y-90400000D01*
X179440000Y-92480000D02*
X179440000Y-93941000D01*
X180121000Y-89216000D02*
X180121000Y-90400000D01*
X176245225Y-89715000D02*
X176245225Y-90215000D01*
X179200000Y-88890000D02*
X179200000Y-90400000D01*
X180481000Y-92480000D02*
X180481000Y-93411000D01*
X179280000Y-92480000D02*
X179280000Y-93976000D01*
X179360000Y-88920000D02*
X179360000Y-90400000D01*
X180401000Y-92480000D02*
X180401000Y-93475000D01*
X180561000Y-92480000D02*
X180561000Y-93341000D01*
X178840000Y-88860000D02*
X178840000Y-90400000D01*
X179440000Y-88939000D02*
X179440000Y-90400000D01*
X180761000Y-89741000D02*
X180761000Y-90400000D01*
X181420000Y-91440000D02*
G75*
G03*
X181420000Y-91440000I-2620000J0D01*
G01*
%TO.C,C4*%
X135081000Y-82320000D02*
X135081000Y-82933000D01*
X134401000Y-82320000D02*
X134401000Y-83504000D01*
X133280000Y-82320000D02*
X133280000Y-83853000D01*
X134321000Y-79012000D02*
X134321000Y-80240000D01*
X134201000Y-78951000D02*
X134201000Y-80240000D01*
X134241000Y-78970000D02*
X134241000Y-80240000D01*
X134761000Y-79309000D02*
X134761000Y-80240000D01*
X135041000Y-82320000D02*
X135041000Y-82979000D01*
X134721000Y-82320000D02*
X134721000Y-83284000D01*
X133240000Y-78704000D02*
X133240000Y-80240000D01*
X134641000Y-79215000D02*
X134641000Y-80240000D01*
X133120000Y-82320000D02*
X133120000Y-83860000D01*
X133801000Y-82320000D02*
X133801000Y-83760000D01*
X133961000Y-78852000D02*
X133961000Y-80240000D01*
X134001000Y-78866000D02*
X134001000Y-80240000D01*
X134841000Y-79379000D02*
X134841000Y-80240000D01*
X133680000Y-78769000D02*
X133680000Y-80240000D01*
X133320000Y-82320000D02*
X133320000Y-83849000D01*
X133921000Y-82320000D02*
X133921000Y-83722000D01*
X133640000Y-82320000D02*
X133640000Y-83800000D01*
X134361000Y-82320000D02*
X134361000Y-83527000D01*
X134481000Y-82320000D02*
X134481000Y-83455000D01*
X133200000Y-82320000D02*
X133200000Y-83858000D01*
X133600000Y-78752000D02*
X133600000Y-80240000D01*
X134521000Y-79131000D02*
X134521000Y-80240000D01*
X134921000Y-79454000D02*
X134921000Y-80240000D01*
X135081000Y-79627000D02*
X135081000Y-80240000D01*
X134121000Y-82320000D02*
X134121000Y-83645000D01*
X133080000Y-78700000D02*
X133080000Y-80240000D01*
X133400000Y-78719000D02*
X133400000Y-80240000D01*
X134121000Y-78915000D02*
X134121000Y-80240000D01*
X133560000Y-78744000D02*
X133560000Y-80240000D01*
X135561000Y-80475000D02*
X135561000Y-82085000D01*
X135361000Y-80029000D02*
X135361000Y-82531000D01*
X135201000Y-79780000D02*
X135201000Y-82780000D01*
X133440000Y-82320000D02*
X133440000Y-83836000D01*
X134161000Y-82320000D02*
X134161000Y-83628000D01*
X135601000Y-80603000D02*
X135601000Y-81957000D01*
X134641000Y-82320000D02*
X134641000Y-83345000D01*
X134601000Y-82320000D02*
X134601000Y-83375000D01*
X133841000Y-78812000D02*
X133841000Y-80240000D01*
X134081000Y-82320000D02*
X134081000Y-83662000D01*
X133961000Y-82320000D02*
X133961000Y-83708000D01*
X134161000Y-78932000D02*
X134161000Y-80240000D01*
X134321000Y-82320000D02*
X134321000Y-83548000D01*
X134961000Y-79495000D02*
X134961000Y-80240000D01*
X134601000Y-79185000D02*
X134601000Y-80240000D01*
X133400000Y-82320000D02*
X133400000Y-83841000D01*
X134001000Y-82320000D02*
X134001000Y-83694000D01*
X134041000Y-82320000D02*
X134041000Y-83678000D01*
X133240000Y-82320000D02*
X133240000Y-83856000D01*
X134081000Y-78898000D02*
X134081000Y-80240000D01*
X133760000Y-78789000D02*
X133760000Y-80240000D01*
X135481000Y-80269000D02*
X135481000Y-82291000D01*
X135161000Y-79726000D02*
X135161000Y-82834000D01*
X135521000Y-80365000D02*
X135521000Y-82195000D01*
X130275225Y-79805000D02*
X130775225Y-79805000D01*
X133080000Y-82320000D02*
X133080000Y-83860000D01*
X133881000Y-78825000D02*
X133881000Y-80240000D01*
X134561000Y-79158000D02*
X134561000Y-80240000D01*
X134281000Y-82320000D02*
X134281000Y-83570000D01*
X134441000Y-79080000D02*
X134441000Y-80240000D01*
X134881000Y-79416000D02*
X134881000Y-80240000D01*
X135001000Y-82320000D02*
X135001000Y-83023000D01*
X135441000Y-80182000D02*
X135441000Y-82378000D01*
X133200000Y-78702000D02*
X133200000Y-80240000D01*
X133360000Y-78715000D02*
X133360000Y-80240000D01*
X133160000Y-78701000D02*
X133160000Y-80240000D01*
X133280000Y-78707000D02*
X133280000Y-80240000D01*
X134881000Y-82320000D02*
X134881000Y-83144000D01*
X134201000Y-82320000D02*
X134201000Y-83609000D01*
X135641000Y-80762000D02*
X135641000Y-81798000D01*
X135681000Y-80996000D02*
X135681000Y-81564000D01*
X133680000Y-82320000D02*
X133680000Y-83791000D01*
X134801000Y-82320000D02*
X134801000Y-83217000D01*
X134241000Y-82320000D02*
X134241000Y-83590000D01*
X133480000Y-82320000D02*
X133480000Y-83830000D01*
X135321000Y-79961000D02*
X135321000Y-82599000D01*
X135281000Y-79897000D02*
X135281000Y-82663000D01*
X134041000Y-78882000D02*
X134041000Y-80240000D01*
X134361000Y-79033000D02*
X134361000Y-80240000D01*
X135401000Y-80102000D02*
X135401000Y-82458000D01*
X134441000Y-82320000D02*
X134441000Y-83480000D01*
X135001000Y-79537000D02*
X135001000Y-80240000D01*
X134681000Y-79245000D02*
X134681000Y-80240000D01*
X135121000Y-79675000D02*
X135121000Y-82885000D01*
X134561000Y-82320000D02*
X134561000Y-83402000D01*
X133841000Y-82320000D02*
X133841000Y-83748000D01*
X133600000Y-82320000D02*
X133600000Y-83808000D01*
X133921000Y-78838000D02*
X133921000Y-80240000D01*
X133440000Y-78724000D02*
X133440000Y-80240000D01*
X133520000Y-82320000D02*
X133520000Y-83823000D01*
X135241000Y-79837000D02*
X135241000Y-82723000D01*
X134921000Y-82320000D02*
X134921000Y-83106000D01*
X133881000Y-82320000D02*
X133881000Y-83735000D01*
X133360000Y-82320000D02*
X133360000Y-83845000D01*
X133160000Y-82320000D02*
X133160000Y-83859000D01*
X133760000Y-82320000D02*
X133760000Y-83771000D01*
X134961000Y-82320000D02*
X134961000Y-83065000D01*
X133801000Y-78800000D02*
X133801000Y-80240000D01*
X134721000Y-79276000D02*
X134721000Y-80240000D01*
X134521000Y-82320000D02*
X134521000Y-83429000D01*
X134481000Y-79105000D02*
X134481000Y-80240000D01*
X134281000Y-78990000D02*
X134281000Y-80240000D01*
X133320000Y-78711000D02*
X133320000Y-80240000D01*
X134801000Y-79343000D02*
X134801000Y-80240000D01*
X133520000Y-78737000D02*
X133520000Y-80240000D01*
X133720000Y-82320000D02*
X133720000Y-83781000D01*
X134401000Y-79056000D02*
X134401000Y-80240000D01*
X130525225Y-79555000D02*
X130525225Y-80055000D01*
X133480000Y-78730000D02*
X133480000Y-80240000D01*
X134761000Y-82320000D02*
X134761000Y-83251000D01*
X133560000Y-82320000D02*
X133560000Y-83816000D01*
X133640000Y-78760000D02*
X133640000Y-80240000D01*
X134681000Y-82320000D02*
X134681000Y-83315000D01*
X134841000Y-82320000D02*
X134841000Y-83181000D01*
X133120000Y-78700000D02*
X133120000Y-80240000D01*
X133720000Y-78779000D02*
X133720000Y-80240000D01*
X135041000Y-79581000D02*
X135041000Y-80240000D01*
X135700000Y-81280000D02*
G75*
G03*
X135700000Y-81280000I-2620000J0D01*
G01*
%TO.C,C3*%
X117301000Y-82320000D02*
X117301000Y-82933000D01*
X116621000Y-82320000D02*
X116621000Y-83504000D01*
X115500000Y-82320000D02*
X115500000Y-83853000D01*
X116541000Y-79012000D02*
X116541000Y-80240000D01*
X116421000Y-78951000D02*
X116421000Y-80240000D01*
X116461000Y-78970000D02*
X116461000Y-80240000D01*
X116981000Y-79309000D02*
X116981000Y-80240000D01*
X117261000Y-82320000D02*
X117261000Y-82979000D01*
X116941000Y-82320000D02*
X116941000Y-83284000D01*
X115460000Y-78704000D02*
X115460000Y-80240000D01*
X116861000Y-79215000D02*
X116861000Y-80240000D01*
X115340000Y-82320000D02*
X115340000Y-83860000D01*
X116021000Y-82320000D02*
X116021000Y-83760000D01*
X116181000Y-78852000D02*
X116181000Y-80240000D01*
X116221000Y-78866000D02*
X116221000Y-80240000D01*
X117061000Y-79379000D02*
X117061000Y-80240000D01*
X115900000Y-78769000D02*
X115900000Y-80240000D01*
X115540000Y-82320000D02*
X115540000Y-83849000D01*
X116141000Y-82320000D02*
X116141000Y-83722000D01*
X115860000Y-82320000D02*
X115860000Y-83800000D01*
X116581000Y-82320000D02*
X116581000Y-83527000D01*
X116701000Y-82320000D02*
X116701000Y-83455000D01*
X115420000Y-82320000D02*
X115420000Y-83858000D01*
X115820000Y-78752000D02*
X115820000Y-80240000D01*
X116741000Y-79131000D02*
X116741000Y-80240000D01*
X117141000Y-79454000D02*
X117141000Y-80240000D01*
X117301000Y-79627000D02*
X117301000Y-80240000D01*
X116341000Y-82320000D02*
X116341000Y-83645000D01*
X115300000Y-78700000D02*
X115300000Y-80240000D01*
X115620000Y-78719000D02*
X115620000Y-80240000D01*
X116341000Y-78915000D02*
X116341000Y-80240000D01*
X115780000Y-78744000D02*
X115780000Y-80240000D01*
X117781000Y-80475000D02*
X117781000Y-82085000D01*
X117581000Y-80029000D02*
X117581000Y-82531000D01*
X117421000Y-79780000D02*
X117421000Y-82780000D01*
X115660000Y-82320000D02*
X115660000Y-83836000D01*
X116381000Y-82320000D02*
X116381000Y-83628000D01*
X117821000Y-80603000D02*
X117821000Y-81957000D01*
X116861000Y-82320000D02*
X116861000Y-83345000D01*
X116821000Y-82320000D02*
X116821000Y-83375000D01*
X116061000Y-78812000D02*
X116061000Y-80240000D01*
X116301000Y-82320000D02*
X116301000Y-83662000D01*
X116181000Y-82320000D02*
X116181000Y-83708000D01*
X116381000Y-78932000D02*
X116381000Y-80240000D01*
X116541000Y-82320000D02*
X116541000Y-83548000D01*
X117181000Y-79495000D02*
X117181000Y-80240000D01*
X116821000Y-79185000D02*
X116821000Y-80240000D01*
X115620000Y-82320000D02*
X115620000Y-83841000D01*
X116221000Y-82320000D02*
X116221000Y-83694000D01*
X116261000Y-82320000D02*
X116261000Y-83678000D01*
X115460000Y-82320000D02*
X115460000Y-83856000D01*
X116301000Y-78898000D02*
X116301000Y-80240000D01*
X115980000Y-78789000D02*
X115980000Y-80240000D01*
X117701000Y-80269000D02*
X117701000Y-82291000D01*
X117381000Y-79726000D02*
X117381000Y-82834000D01*
X117741000Y-80365000D02*
X117741000Y-82195000D01*
X112495225Y-79805000D02*
X112995225Y-79805000D01*
X115300000Y-82320000D02*
X115300000Y-83860000D01*
X116101000Y-78825000D02*
X116101000Y-80240000D01*
X116781000Y-79158000D02*
X116781000Y-80240000D01*
X116501000Y-82320000D02*
X116501000Y-83570000D01*
X116661000Y-79080000D02*
X116661000Y-80240000D01*
X117101000Y-79416000D02*
X117101000Y-80240000D01*
X117221000Y-82320000D02*
X117221000Y-83023000D01*
X117661000Y-80182000D02*
X117661000Y-82378000D01*
X115420000Y-78702000D02*
X115420000Y-80240000D01*
X115580000Y-78715000D02*
X115580000Y-80240000D01*
X115380000Y-78701000D02*
X115380000Y-80240000D01*
X115500000Y-78707000D02*
X115500000Y-80240000D01*
X117101000Y-82320000D02*
X117101000Y-83144000D01*
X116421000Y-82320000D02*
X116421000Y-83609000D01*
X117861000Y-80762000D02*
X117861000Y-81798000D01*
X117901000Y-80996000D02*
X117901000Y-81564000D01*
X115900000Y-82320000D02*
X115900000Y-83791000D01*
X117021000Y-82320000D02*
X117021000Y-83217000D01*
X116461000Y-82320000D02*
X116461000Y-83590000D01*
X115700000Y-82320000D02*
X115700000Y-83830000D01*
X117541000Y-79961000D02*
X117541000Y-82599000D01*
X117501000Y-79897000D02*
X117501000Y-82663000D01*
X116261000Y-78882000D02*
X116261000Y-80240000D01*
X116581000Y-79033000D02*
X116581000Y-80240000D01*
X117621000Y-80102000D02*
X117621000Y-82458000D01*
X116661000Y-82320000D02*
X116661000Y-83480000D01*
X117221000Y-79537000D02*
X117221000Y-80240000D01*
X116901000Y-79245000D02*
X116901000Y-80240000D01*
X117341000Y-79675000D02*
X117341000Y-82885000D01*
X116781000Y-82320000D02*
X116781000Y-83402000D01*
X116061000Y-82320000D02*
X116061000Y-83748000D01*
X115820000Y-82320000D02*
X115820000Y-83808000D01*
X116141000Y-78838000D02*
X116141000Y-80240000D01*
X115660000Y-78724000D02*
X115660000Y-80240000D01*
X115740000Y-82320000D02*
X115740000Y-83823000D01*
X117461000Y-79837000D02*
X117461000Y-82723000D01*
X117141000Y-82320000D02*
X117141000Y-83106000D01*
X116101000Y-82320000D02*
X116101000Y-83735000D01*
X115580000Y-82320000D02*
X115580000Y-83845000D01*
X115380000Y-82320000D02*
X115380000Y-83859000D01*
X115980000Y-82320000D02*
X115980000Y-83771000D01*
X117181000Y-82320000D02*
X117181000Y-83065000D01*
X116021000Y-78800000D02*
X116021000Y-80240000D01*
X116941000Y-79276000D02*
X116941000Y-80240000D01*
X116741000Y-82320000D02*
X116741000Y-83429000D01*
X116701000Y-79105000D02*
X116701000Y-80240000D01*
X116501000Y-78990000D02*
X116501000Y-80240000D01*
X115540000Y-78711000D02*
X115540000Y-80240000D01*
X117021000Y-79343000D02*
X117021000Y-80240000D01*
X115740000Y-78737000D02*
X115740000Y-80240000D01*
X115940000Y-82320000D02*
X115940000Y-83781000D01*
X116621000Y-79056000D02*
X116621000Y-80240000D01*
X112745225Y-79555000D02*
X112745225Y-80055000D01*
X115700000Y-78730000D02*
X115700000Y-80240000D01*
X116981000Y-82320000D02*
X116981000Y-83251000D01*
X115780000Y-82320000D02*
X115780000Y-83816000D01*
X115860000Y-78760000D02*
X115860000Y-80240000D01*
X116901000Y-82320000D02*
X116901000Y-83315000D01*
X117061000Y-82320000D02*
X117061000Y-83181000D01*
X115340000Y-78700000D02*
X115340000Y-80240000D01*
X115940000Y-78779000D02*
X115940000Y-80240000D01*
X117261000Y-79581000D02*
X117261000Y-80240000D01*
X117920000Y-81280000D02*
G75*
G03*
X117920000Y-81280000I-2620000J0D01*
G01*
%TO.C,+15V-*%
X213540000Y-56357500D02*
X198840000Y-56357500D01*
X213540000Y-47157500D02*
X213540000Y-56357500D01*
X198840000Y-47157500D02*
X200740000Y-47157500D01*
X198840000Y-49857500D02*
X198840000Y-47157500D01*
X198840000Y-56357500D02*
X198840000Y-53757500D01*
X204740000Y-47157500D02*
X213540000Y-47157500D01*
X198640000Y-55507500D02*
X198640000Y-56557500D01*
X199690000Y-56557500D02*
X198640000Y-56557500D01*
%TO.C,MFC1*%
X73660000Y-99278675D02*
X73410000Y-98845662D01*
X73910000Y-98845662D02*
X73660000Y-99278675D01*
X63715000Y-112080000D02*
X63715000Y-99740000D01*
X73410000Y-98845662D02*
X73910000Y-98845662D01*
X63715000Y-99740000D02*
X94685000Y-99740000D01*
X94685000Y-99740000D02*
X94685000Y-112080000D01*
%TO.C,MFC4*%
X187960000Y-99278675D02*
X187710000Y-98845662D01*
X188210000Y-98845662D02*
X187960000Y-99278675D01*
X178015000Y-112080000D02*
X178015000Y-99740000D01*
X187710000Y-98845662D02*
X188210000Y-98845662D01*
X178015000Y-99740000D02*
X208985000Y-99740000D01*
X208985000Y-99740000D02*
X208985000Y-112080000D01*
%TO.C,MFC3*%
X149860000Y-99278675D02*
X149610000Y-98845662D01*
X150110000Y-98845662D02*
X149860000Y-99278675D01*
X139915000Y-112080000D02*
X139915000Y-99740000D01*
X149610000Y-98845662D02*
X150110000Y-98845662D01*
X139915000Y-99740000D02*
X170885000Y-99740000D01*
X170885000Y-99740000D02*
X170885000Y-112080000D01*
%TO.C,MFC2*%
X111760000Y-99278675D02*
X111510000Y-98845662D01*
X112010000Y-98845662D02*
X111760000Y-99278675D01*
X101815000Y-112080000D02*
X101815000Y-99740000D01*
X111510000Y-98845662D02*
X112010000Y-98845662D01*
X101815000Y-99740000D02*
X132785000Y-99740000D01*
X132785000Y-99740000D02*
X132785000Y-112080000D01*
%TO.C,Q4*%
X134090000Y-72970000D02*
X137690000Y-72970000D01*
X137728478Y-72958478D02*
G75*
G03*
X135890000Y-68520000I-1838478J1838478D01*
G01*
X135890000Y-68519999D02*
G75*
G03*
X134051522Y-72958478I0J-2600001D01*
G01*
%TO.C,Q3*%
X93450000Y-72970000D02*
X97050000Y-72970000D01*
X97088478Y-72958478D02*
G75*
G03*
X95250000Y-68520000I-1838478J1838478D01*
G01*
X95250000Y-68519999D02*
G75*
G03*
X93411522Y-72958478I0J-2600001D01*
G01*
%TO.C,Q2*%
X110575000Y-73187500D02*
X114175000Y-73187500D01*
X114213478Y-73175978D02*
G75*
G03*
X112375000Y-68737500I-1838478J1838478D01*
G01*
X112375000Y-68737499D02*
G75*
G03*
X110536522Y-73175978I0J-2600001D01*
G01*
%TO.C,Q1*%
X75670000Y-72970000D02*
X79270000Y-72970000D01*
X79308478Y-72958478D02*
G75*
G03*
X77470000Y-68520000I-1838478J1838478D01*
G01*
X77470000Y-68519999D02*
G75*
G03*
X75631522Y-72958478I0J-2600001D01*
G01*
%TO.C,R15*%
X97440000Y-88900000D02*
X100600000Y-88900000D01*
X97440000Y-88900000D02*
G75*
G03*
X97440000Y-88900000I-920000J0D01*
G01*
%TO.C,R14*%
X122840000Y-88900000D02*
X126000000Y-88900000D01*
X122840000Y-88900000D02*
G75*
G03*
X122840000Y-88900000I-920000J0D01*
G01*
%TO.C,R13*%
X133000000Y-88900000D02*
X136160000Y-88900000D01*
X133000000Y-88900000D02*
G75*
G03*
X133000000Y-88900000I-920000J0D01*
G01*
%TO.C,R12*%
X142240000Y-72740000D02*
X142240000Y-69580000D01*
X143160000Y-73660000D02*
G75*
G03*
X143160000Y-73660000I-920000J0D01*
G01*
%TO.C,R11*%
X101600000Y-72740000D02*
X101600000Y-69580000D01*
X102520000Y-73660000D02*
G75*
G03*
X102520000Y-73660000I-920000J0D01*
G01*
%TO.C,R10*%
X119380000Y-72740000D02*
X119380000Y-69580000D01*
X120300000Y-73660000D02*
G75*
G03*
X120300000Y-73660000I-920000J0D01*
G01*
%TO.C,R9*%
X79660000Y-88900000D02*
G75*
G03*
X79660000Y-88900000I-920000J0D01*
G01*
X79660000Y-88900000D02*
X82820000Y-88900000D01*
%TO.C,R8*%
X83820000Y-72740000D02*
X83820000Y-69580000D01*
X84740000Y-73660000D02*
G75*
G03*
X84740000Y-73660000I-920000J0D01*
G01*
%TO.C,R7*%
X173080000Y-85500000D02*
X173080000Y-82340000D01*
X174000000Y-86420000D02*
G75*
G03*
X174000000Y-86420000I-920000J0D01*
G01*
%TO.C,R6*%
X140620000Y-88900000D02*
X143780000Y-88900000D01*
X140620000Y-88900000D02*
G75*
G03*
X140620000Y-88900000I-920000J0D01*
G01*
%TO.C,R5*%
X115220000Y-88900000D02*
X118380000Y-88900000D01*
X115220000Y-88900000D02*
G75*
G03*
X115220000Y-88900000I-920000J0D01*
G01*
%TO.C,R4*%
X105060000Y-88900000D02*
X108220000Y-88900000D01*
X105060000Y-88900000D02*
G75*
G03*
X105060000Y-88900000I-920000J0D01*
G01*
%TO.C,R3*%
X87280000Y-88900000D02*
G75*
G03*
X87280000Y-88900000I-920000J0D01*
G01*
X87280000Y-88900000D02*
X90440000Y-88900000D01*
%TO.C,R2*%
X178160000Y-85500000D02*
X178160000Y-82340000D01*
X179080000Y-86420000D02*
G75*
G03*
X179080000Y-86420000I-920000J0D01*
G01*
%TO.C,R1*%
X183240000Y-82260000D02*
X183240000Y-85420000D01*
X184160000Y-81340000D02*
G75*
G03*
X184160000Y-81340000I-920000J0D01*
G01*
%TD*%
M02*
